ply
format ascii 1.0
comment Created by Blender 2.82 (sub 7) - www.blender.org, source file: 'pieza_surf.blend'
element vertex 706
property float x
property float y
property float z
property float nx
property float ny
property float nz
element face 312
property list uchar uint vertex_indices
end_header
0.848620 -0.105000 0.365196 0.425964 0.000000 0.904740
0.848620 0.105000 0.365196 0.425964 0.000000 0.904740
0.846603 -0.105000 0.366145 0.425964 0.000000 0.904740
0.846603 0.105000 0.366145 0.425964 0.000000 0.904740
0.846603 -0.105000 0.366145 0.394906 0.000000 0.918721
0.846603 0.105000 0.366145 0.394906 0.000000 0.918721
0.844594 -0.105000 0.367009 0.394906 0.000000 0.918721
0.844594 -0.105000 0.367009 0.394896 0.000000 0.918726
0.846603 0.105000 0.366145 0.394896 0.000000 0.918726
0.844594 0.105000 0.367009 0.394896 0.000000 0.918726
0.844594 -0.105000 0.367009 0.361765 0.000000 0.932269
0.844594 0.105000 0.367009 0.361765 0.000000 0.932269
0.842595 -0.105000 0.367785 0.361765 0.000000 0.932269
0.842595 -0.105000 0.367785 0.361774 0.000000 0.932266
0.844594 0.105000 0.367009 0.361774 0.000000 0.932266
0.842595 0.105000 0.367785 0.361774 0.000000 0.932266
0.842595 -0.105000 0.367785 0.335584 0.000000 0.942010
0.842595 0.105000 0.367785 0.335584 0.000000 0.942010
0.841596 -0.105000 0.368140 0.335584 0.000000 0.942010
0.841596 0.105000 0.368140 0.335584 0.000000 0.942010
0.841596 -0.105000 0.368140 0.317403 0.000000 0.948291
0.841596 0.105000 0.368140 0.317403 0.000000 0.948291
0.840601 -0.105000 0.368473 0.317403 0.000000 0.948291
0.840601 0.105000 0.368473 0.317403 0.000000 0.948291
0.840601 -0.105000 0.368473 0.298780 0.000000 0.954322
0.840601 0.105000 0.368473 0.298780 0.000000 0.954322
0.839613 -0.105000 0.368783 0.298780 0.000000 0.954322
0.839613 0.105000 0.368783 0.298780 0.000000 0.954322
0.839613 -0.105000 0.368783 0.279757 0.000000 0.960071
0.839613 0.105000 0.368783 0.279757 0.000000 0.960071
0.838629 -0.105000 0.369070 0.279757 0.000000 0.960071
0.838629 0.105000 0.369070 0.279757 0.000000 0.960071
0.838629 -0.105000 0.369070 0.253481 0.000000 0.967340
0.838629 0.105000 0.369070 0.253481 0.000000 0.967340
0.836991 -0.105000 0.369499 0.253481 0.000000 0.967340
0.836991 0.105000 0.369499 0.253481 0.000000 0.967340
0.836991 -0.105000 0.369499 0.219500 0.000000 0.975612
0.836991 0.105000 0.369499 0.219500 0.000000 0.975612
0.835364 -0.105000 0.369865 0.219500 0.000000 0.975612
0.835364 -0.105000 0.369865 0.219493 0.000000 0.975614
0.836991 0.105000 0.369499 0.219493 0.000000 0.975614
0.835364 0.105000 0.369865 0.219493 0.000000 0.975614
0.835364 -0.105000 0.369865 0.184376 0.000000 0.982856
0.835364 0.105000 0.369865 0.184376 0.000000 0.982856
0.833747 -0.105000 0.370168 0.184376 0.000000 0.982856
0.833747 -0.105000 0.370168 0.184383 0.000000 0.982855
0.835364 0.105000 0.369865 0.184383 0.000000 0.982855
0.833747 0.105000 0.370168 0.184383 0.000000 0.982855
0.833747 -0.105000 0.370168 0.148015 0.000000 0.988985
0.833747 0.105000 0.370168 0.148015 0.000000 0.988985
0.832141 -0.105000 0.370409 0.148015 0.000000 0.988985
0.832141 0.105000 0.370409 0.148015 0.000000 0.988985
0.832141 -0.105000 0.370409 0.110756 0.000000 0.993848
0.832141 0.105000 0.370409 0.110756 0.000000 0.993848
0.830548 -0.105000 0.370586 0.110756 0.000000 0.993848
0.830548 0.105000 0.370586 0.110756 0.000000 0.993848
0.830548 -0.105000 0.370586 0.072693 0.000000 0.997354
0.830548 0.105000 0.370586 0.072693 0.000000 0.997354
0.828967 -0.105000 0.370701 0.072693 0.000000 0.997354
0.828967 -0.105000 0.370701 0.072690 0.000000 0.997355
0.830548 0.105000 0.370586 0.072690 0.000000 0.997355
0.828967 0.105000 0.370701 0.072690 0.000000 0.997355
0.828967 -0.105000 0.370701 0.031264 0.000000 0.999511
0.828967 0.105000 0.370701 0.031264 0.000000 0.999511
0.827177 -0.105000 0.370757 0.031264 0.000000 0.999511
0.827177 -0.105000 0.370757 0.031265 0.000000 0.999511
0.828967 0.105000 0.370701 0.031265 0.000000 0.999511
0.827177 0.105000 0.370757 0.031265 0.000000 0.999511
0.827177 -0.105000 0.370757 -0.013377 0.000000 0.999910
0.827177 0.105000 0.370757 -0.013377 0.000000 0.999910
0.825406 -0.105000 0.370734 -0.013377 0.000000 0.999910
0.825406 0.105000 0.370734 -0.013377 -0.000000 0.999910
0.825406 -0.105000 0.370734 -0.058225 -0.000000 0.998303
0.825406 0.105000 0.370734 -0.058225 -0.000000 0.998303
0.823654 -0.105000 0.370631 -0.058225 -0.000000 0.998303
0.823654 -0.105000 0.370631 -0.058227 0.000000 0.998303
0.825406 0.105000 0.370734 -0.058227 0.000000 0.998303
0.823654 0.105000 0.370631 -0.058227 0.000000 0.998303
0.823654 -0.105000 0.370631 -0.102925 0.000000 0.994689
0.823654 0.105000 0.370631 -0.102925 0.000000 0.994689
0.821922 -0.105000 0.370452 -0.102925 0.000000 0.994689
0.821922 0.105000 0.370452 -0.102925 0.000000 0.994689
0.821922 -0.105000 0.370452 -0.147159 0.000000 0.989113
0.821922 0.105000 0.370452 -0.147159 0.000000 0.989113
0.820209 -0.105000 0.370197 -0.147159 0.000000 0.989113
0.820209 0.105000 0.370197 -0.147159 0.000000 0.989113
0.820209 -0.105000 0.370197 -0.190621 0.000000 0.981664
0.820209 0.105000 0.370197 -0.190621 0.000000 0.981664
0.818517 -0.105000 0.369869 -0.190621 0.000000 0.981664
0.818517 0.105000 0.369869 -0.190621 0.000000 0.981664
0.818517 -0.105000 0.369869 -0.232953 0.000000 0.972488
0.818517 0.105000 0.369869 -0.232953 0.000000 0.972488
0.816845 -0.105000 0.369468 -0.232953 0.000000 0.972488
0.816845 0.105000 0.369468 -0.232953 0.000000 0.972488
0.816845 -0.105000 0.369468 -0.273976 0.000000 0.961737
0.816845 0.105000 0.369468 -0.273976 0.000000 0.961737
0.815195 -0.105000 0.368998 -0.273976 0.000000 0.961737
0.815195 0.105000 0.368998 -0.273976 0.000000 0.961737
0.815195 -0.105000 0.368998 -0.313444 0.000000 0.949607
0.815195 0.105000 0.368998 -0.313444 0.000000 0.949607
0.813565 -0.105000 0.368460 -0.313444 0.000000 0.949607
0.813565 0.105000 0.368460 -0.313444 0.000000 0.949607
0.813565 -0.105000 0.368460 -0.351700 0.000000 0.936113
0.813565 0.105000 0.368460 -0.351700 0.000000 0.936113
0.811912 -0.105000 0.367839 -0.351700 0.000000 0.936113
0.811912 -0.105000 0.367839 -0.351689 -0.000000 0.936117
0.813565 0.105000 0.368460 -0.351689 -0.000000 0.936117
0.811912 0.105000 0.367839 -0.351689 -0.000000 0.936117
0.811912 -0.105000 0.367839 -0.388630 -0.000000 0.921394
0.811912 0.105000 0.367839 -0.388630 -0.000000 0.921394
0.810280 -0.105000 0.367151 -0.388630 -0.000000 0.921394
0.810280 0.105000 0.367151 -0.388630 -0.000000 0.921394
0.810280 -0.105000 0.367151 -0.423388 -0.000000 0.905949
0.810280 0.105000 0.367151 -0.423388 -0.000000 0.905949
0.808672 -0.105000 0.366399 -0.423388 -0.000000 0.905949
0.808672 -0.105000 0.366399 -0.423401 0.000000 0.905942
0.810280 0.105000 0.367151 -0.423401 0.000000 0.905942
0.808672 0.105000 0.366399 -0.423401 0.000000 0.905942
0.808672 -0.105000 0.366399 -0.456124 0.000000 0.889916
0.808672 0.105000 0.366399 -0.456124 0.000000 0.889916
0.807085 -0.105000 0.365586 -0.456124 0.000000 0.889916
0.807085 0.105000 0.365586 -0.456124 0.000000 0.889916
0.807085 -0.105000 0.365586 -0.486804 0.000000 0.873511
0.807085 0.105000 0.365586 -0.486804 0.000000 0.873511
0.805520 -0.105000 0.364714 -0.486804 0.000000 0.873511
0.805520 0.105000 0.364714 -0.486804 0.000000 0.873511
0.805520 -0.105000 0.364714 -0.513054 0.000000 0.858356
0.805520 0.105000 0.364714 -0.513054 0.000000 0.858356
0.804233 -0.105000 0.363944 -0.513054 0.000000 0.858356
0.804233 0.105000 0.363944 -0.513054 0.000000 0.858356
0.804233 -0.105000 0.363944 -0.535471 0.000000 0.844554
0.804233 0.105000 0.363944 -0.535471 0.000000 0.844554
0.802960 -0.105000 0.363138 -0.535471 0.000000 0.844554
0.802960 0.105000 0.363138 -0.535471 0.000000 0.844554
0.802960 -0.105000 0.363138 -0.556502 0.000000 0.830846
0.802960 0.105000 0.363138 -0.556502 0.000000 0.830846
0.801702 -0.105000 0.362295 -0.556502 0.000000 0.830846
0.801702 0.105000 0.362295 -0.556502 0.000000 0.830846
0.801702 -0.105000 0.362295 -0.573837 0.000000 0.818969
0.801702 0.105000 0.362295 -0.573837 0.000000 0.818969
0.800768 -0.105000 0.361640 -0.573837 0.000000 0.818969
0.800768 0.105000 0.361640 -0.573837 0.000000 0.818969
0.800768 -0.105000 0.361640 -0.587899 0.000000 0.808934
0.800768 0.105000 0.361640 -0.587899 0.000000 0.808934
0.799842 -0.105000 0.360967 -0.587899 0.000000 0.808934
0.799842 0.105000 0.360967 -0.587899 0.000000 0.808934
0.799842 -0.105000 0.360967 -0.601658 0.000000 0.798754
0.799842 0.105000 0.360967 -0.601658 0.000000 0.798754
0.798873 -0.105000 0.360237 -0.601658 0.000000 0.798754
0.798873 -0.105000 0.360237 -0.601634 -0.000000 0.798772
0.799842 0.105000 0.360967 -0.601634 -0.000000 0.798772
0.798873 0.105000 0.360237 -0.601634 -0.000000 0.798772
0.798873 -0.105000 0.360237 -0.614997 -0.000000 0.788529
0.798873 0.105000 0.360237 -0.614997 -0.000000 0.788529
0.797913 -0.105000 0.359488 -0.614997 -0.000000 0.788529
0.797913 0.105000 0.359488 -0.614997 -0.000000 0.788529
0.797913 -0.105000 0.359488 -0.627968 -0.000000 0.778239
0.797913 0.105000 0.359488 -0.627968 -0.000000 0.778239
0.796915 -0.105000 0.358683 -0.627968 -0.000000 0.778239
0.796915 -0.105000 0.358683 -0.627991 0.000000 0.778221
0.797913 0.105000 0.359488 -0.627991 0.000000 0.778221
0.796915 0.105000 0.358683 -0.627991 0.000000 0.778221
0.796915 -0.105000 0.358683 -0.640498 0.000000 0.767960
0.796915 0.105000 0.358683 -0.640498 0.000000 0.767960
0.795925 -0.105000 0.357858 -0.640498 0.000000 0.767960
0.795925 0.105000 0.357858 -0.640498 0.000000 0.767960
0.795925 -0.105000 0.357858 -0.657664 0.000000 0.753312
0.795925 0.105000 0.357858 -0.657664 0.000000 0.753312
0.794015 -0.105000 0.356190 -0.657664 0.000000 0.753312
0.794015 0.105000 0.356190 -0.657664 0.000000 0.753312
0.794015 -0.105000 0.356190 -0.678229 0.000000 0.734850
0.794015 0.105000 0.356190 -0.678229 0.000000 0.734850
0.792135 -0.105000 0.354455 -0.678229 0.000000 0.734850
0.792135 0.105000 0.354455 -0.678229 0.000000 0.734850
0.792135 -0.105000 0.354455 -0.696493 0.000000 0.717564
0.792135 0.105000 0.354455 -0.696493 0.000000 0.717564
0.790283 -0.105000 0.352657 -0.696493 0.000000 0.717564
0.790283 -0.105000 0.352657 -0.696481 -0.000000 0.717575
0.792135 0.105000 0.354455 -0.696481 -0.000000 0.717575
0.790283 0.105000 0.352657 -0.696481 -0.000000 0.717575
0.790283 -0.105000 0.352657 -0.709554 -0.000000 0.704651
0.790283 0.105000 0.352657 -0.709554 -0.000000 0.704651
0.789199 -0.105000 0.351566 -0.709554 -0.000000 0.704651
0.789199 0.105000 0.351566 -0.709554 -0.000000 0.704651
0.789199 -0.105000 0.351566 -0.718443 -0.000000 0.695586
0.789199 0.105000 0.351566 -0.718443 -0.000000 0.695586
0.788124 -0.105000 0.350456 -0.718443 -0.000000 0.695586
0.788124 0.105000 0.350456 -0.718443 -0.000000 0.695586
0.788124 -0.105000 0.350456 -0.727141 -0.000000 0.686488
0.788124 0.105000 0.350456 -0.727141 -0.000000 0.686488
0.786939 -0.105000 0.349200 -0.727141 -0.000000 0.686488
0.786939 0.105000 0.349200 -0.727141 -0.000000 0.686488
0.786939 -0.105000 0.349200 -0.735567 -0.000000 0.677452
0.786939 0.105000 0.349200 -0.735567 -0.000000 0.677452
0.785763 -0.105000 0.347924 -0.735567 -0.000000 0.677452
0.785763 -0.105000 0.347924 -0.735584 0.000000 0.677434
0.786939 0.105000 0.349200 -0.735584 0.000000 0.677434
0.785763 0.105000 0.347924 -0.735584 0.000000 0.677434
0.785763 -0.105000 0.347924 -0.746536 0.000000 0.665345
0.785763 0.105000 0.347924 -0.746536 0.000000 0.665345
0.783557 -0.105000 0.345448 -0.746536 0.000000 0.665345
0.783557 0.105000 0.345448 -0.746536 0.000000 0.665345
0.783557 -0.105000 0.345448 -0.756575 0.000000 0.653907
0.783557 0.105000 0.345448 -0.756575 0.000000 0.653907
0.782284 -0.105000 0.343976 -0.756575 0.000000 0.653907
0.782284 0.105000 0.343976 -0.756575 0.000000 0.653907
0.782284 -0.105000 0.343976 -0.763097 0.000000 0.646284
0.782284 0.105000 0.343976 -0.763097 0.000000 0.646284
0.781022 -0.105000 0.342486 -0.763097 0.000000 0.646284
0.781022 0.105000 0.342486 -0.763097 0.000000 0.646284
0.781022 -0.105000 0.342486 -0.771547 0.000000 0.636172
0.781022 0.105000 0.342486 -0.771547 0.000000 0.636172
0.778526 -0.105000 0.339458 -0.771547 0.000000 0.636172
0.778526 0.105000 0.339458 -0.771547 0.000000 0.636172
0.778526 -0.105000 0.339458 -0.780767 0.000000 0.624822
0.778526 0.105000 0.339458 -0.780767 0.000000 0.624822
0.776062 -0.105000 0.336380 -0.780767 0.000000 0.624822
0.776062 0.105000 0.336380 -0.780767 0.000000 0.624822
0.776062 -0.105000 0.336380 -0.787747 0.000000 0.615998
0.776062 0.105000 0.336380 -0.787747 0.000000 0.615998
0.773627 -0.105000 0.333265 -0.787747 0.000000 0.615998
0.773627 0.105000 0.333265 -0.787747 0.000000 0.615998
0.773627 -0.105000 0.333265 -0.792024 0.000000 0.610490
0.773627 0.105000 0.333265 -0.792024 0.000000 0.610490
0.772017 -0.105000 0.331176 -0.792024 0.000000 0.610490
0.772017 0.105000 0.331176 -0.792024 0.000000 0.610490
0.772017 -0.105000 0.331176 -0.795214 0.000000 0.606329
0.772017 0.105000 0.331176 -0.795214 0.000000 0.606329
0.768820 -0.105000 0.326984 -0.795214 0.000000 0.606329
0.768820 -0.105000 0.326984 -0.795209 -0.000000 0.606336
0.772017 0.105000 0.331176 -0.795209 -0.000000 0.606336
0.768820 0.105000 0.326984 -0.795209 -0.000000 0.606336
0.768820 -0.105000 0.326984 -0.796342 -0.000000 0.604846
0.768820 0.105000 0.326984 -0.796342 -0.000000 0.604846
0.764061 -0.105000 0.320718 -0.796342 -0.000000 0.604846
0.764061 -0.105000 0.320718 -0.796346 0.000000 0.604841
0.768820 0.105000 0.326984 -0.796346 0.000000 0.604841
0.764061 0.105000 0.320718 -0.796346 0.000000 0.604841
0.764061 -0.105000 0.320718 -0.793275 0.000000 0.608863
0.764061 0.105000 0.320718 -0.793275 0.000000 0.608863
0.761684 -0.105000 0.317620 -0.793275 0.000000 0.608863
0.761684 0.105000 0.317620 -0.793275 0.000000 0.608863
0.761684 -0.105000 0.317620 -0.789117 0.000000 0.614243
0.761684 0.105000 0.317620 -0.789117 0.000000 0.614243
0.759732 -0.105000 0.315113 -0.789117 0.000000 0.614243
0.759732 0.105000 0.315113 -0.789117 0.000000 0.614243
0.759732 -0.105000 0.315113 -0.783814 0.000000 0.620995
0.759732 0.105000 0.315113 -0.783814 0.000000 0.620995
0.757771 -0.105000 0.312639 -0.783814 0.000000 0.620995
0.757771 0.105000 0.312639 -0.783814 0.000000 0.620995
0.757771 -0.105000 0.312639 -0.777557 0.000000 0.628812
0.757771 0.105000 0.312639 -0.777557 0.000000 0.628812
0.756111 -0.105000 0.310585 -0.777557 0.000000 0.628812
0.756111 0.105000 0.310585 -0.777557 0.000000 0.628812
0.756111 -0.105000 0.310585 -0.770527 0.000000 0.637407
0.756111 0.105000 0.310585 -0.770527 0.000000 0.637407
0.754439 -0.105000 0.308565 -0.770527 0.000000 0.637407
0.754439 0.105000 0.308565 -0.770527 0.000000 0.637407
0.754439 -0.105000 0.308565 -0.761689 0.000000 0.647942
0.754439 0.105000 0.308565 -0.761689 0.000000 0.647942
0.752595 -0.105000 0.306397 -0.761689 0.000000 0.647942
0.752595 0.105000 0.306397 -0.761689 0.000000 0.647942
0.752595 -0.105000 0.306397 -0.750699 0.000000 0.660645
0.752595 0.105000 0.306397 -0.750699 0.000000 0.660645
0.750734 -0.105000 0.304281 -0.750699 0.000000 0.660645
0.750734 0.105000 0.304281 -0.750699 0.000000 0.660645
0.750734 -0.105000 0.304281 -0.737676 0.000000 0.675155
0.750734 0.105000 0.304281 -0.737676 0.000000 0.675155
0.748851 -0.105000 0.302225 -0.737676 0.000000 0.675155
0.748851 0.105000 0.302225 -0.737676 0.000000 0.675155
0.748851 -0.105000 0.302225 -0.722317 0.000000 0.691562
0.748851 0.105000 0.302225 -0.722317 0.000000 0.691562
0.746947 -0.105000 0.300236 -0.722317 0.000000 0.691562
0.746947 0.105000 0.300236 -0.722317 0.000000 0.691562
0.746947 -0.105000 0.300236 -0.704337 0.000000 0.709865
0.746947 0.105000 0.300236 -0.704337 0.000000 0.709865
0.745018 -0.105000 0.298322 -0.704337 0.000000 0.709865
0.745018 0.105000 0.298322 -0.704337 0.000000 0.709865
0.745018 -0.105000 0.298322 -0.688963 0.000000 0.724797
0.745018 0.105000 0.298322 -0.688963 0.000000 0.724797
0.744044 -0.105000 0.297396 -0.688963 0.000000 0.724797
0.744044 0.105000 0.297396 -0.688963 0.000000 0.724797
0.744044 -0.105000 0.297396 -0.677628 0.000000 0.735404
0.744044 0.105000 0.297396 -0.677628 0.000000 0.735404
0.743063 -0.105000 0.296492 -0.677628 0.000000 0.735404
0.743063 0.105000 0.296492 -0.677628 0.000000 0.735404
0.743063 -0.105000 0.296492 -0.660809 0.000000 0.750554
0.743063 0.105000 0.296492 -0.660809 0.000000 0.750554
0.741365 -0.105000 0.294997 -0.660809 0.000000 0.750554
0.741365 0.105000 0.294997 -0.660809 0.000000 0.750554
0.741365 -0.105000 0.294997 -0.637015 0.000000 0.770851
0.741365 0.105000 0.294997 -0.637015 0.000000 0.770851
0.739645 -0.105000 0.293576 -0.637015 0.000000 0.770851
0.739645 -0.105000 0.293576 -0.637002 -0.000000 0.770862
0.741365 0.105000 0.294997 -0.637002 -0.000000 0.770862
0.739645 0.105000 0.293576 -0.637002 -0.000000 0.770862
0.739645 -0.105000 0.293576 -0.617156 -0.000000 0.786841
0.739645 0.105000 0.293576 -0.617156 -0.000000 0.786841
0.738777 -0.105000 0.292895 -0.617156 -0.000000 0.786841
0.738777 -0.105000 0.292895 -0.617182 0.000000 0.786820
0.739645 0.105000 0.293576 -0.617182 0.000000 0.786820
0.738777 0.105000 0.292895 -0.617182 0.000000 0.786820
0.738777 -0.105000 0.292895 -0.602841 0.000000 0.797861
0.738777 0.105000 0.292895 -0.602841 0.000000 0.797861
0.737902 -0.105000 0.292234 -0.602841 0.000000 0.797861
0.737902 0.105000 0.292234 -0.602841 0.000000 0.797861
0.737902 -0.105000 0.292234 -0.582835 0.000000 0.812590
0.737902 0.105000 0.292234 -0.582835 0.000000 0.812590
0.736490 -0.105000 0.291221 -0.582835 0.000000 0.812590
0.736490 0.105000 0.291221 -0.582835 0.000000 0.812590
0.736490 -0.105000 0.291221 -0.555997 0.000000 0.831185
0.736490 0.105000 0.291221 -0.555997 0.000000 0.831185
0.735063 -0.105000 0.290266 -0.555997 0.000000 0.831185
0.735063 0.105000 0.290266 -0.555997 0.000000 0.831185
0.735063 -0.105000 0.290266 -0.526570 0.000000 0.850132
0.735063 0.105000 0.290266 -0.526570 0.000000 0.850132
0.733618 -0.105000 0.289372 -0.526570 0.000000 0.850132
0.733618 0.105000 0.289372 -0.526570 0.000000 0.850132
0.733618 -0.105000 0.289372 -0.494353 0.000000 0.869261
0.733618 0.105000 0.289372 -0.494353 0.000000 0.869261
0.732156 -0.105000 0.288540 -0.494353 0.000000 0.869261
0.732156 0.105000 0.288540 -0.494353 0.000000 0.869261
0.732156 -0.105000 0.288540 -0.459224 0.000000 0.888320
0.732156 0.105000 0.288540 -0.459224 0.000000 0.888320
0.730677 -0.105000 0.287775 -0.459224 0.000000 0.888320
0.730677 0.105000 0.287775 -0.459224 0.000000 0.888320
0.730677 -0.105000 0.287775 -0.420481 0.000000 0.907301
0.730677 0.105000 0.287775 -0.420481 0.000000 0.907301
0.729131 -0.105000 0.287059 -0.420481 0.000000 0.907301
0.729131 -0.105000 0.287059 -0.420468 -0.000000 0.907308
0.730677 0.105000 0.287775 -0.420468 -0.000000 0.907308
0.729131 0.105000 0.287059 -0.420468 -0.000000 0.907308
0.729131 -0.105000 0.287059 -0.388798 -0.000000 0.921323
0.729131 0.105000 0.287059 -0.388798 -0.000000 0.921323
0.728344 -0.105000 0.286727 -0.388798 -0.000000 0.921323
0.728344 -0.105000 0.286727 -0.388823 0.000000 0.921313
0.729131 0.105000 0.287059 -0.388823 0.000000 0.921313
0.728344 0.105000 0.286727 -0.388823 0.000000 0.921313
0.728344 -0.105000 0.286727 -0.366536 0.000000 0.930404
0.728344 0.105000 0.286727 -0.366536 0.000000 0.930404
0.727550 -0.105000 0.286414 -0.366536 0.000000 0.930404
0.727550 0.105000 0.286414 -0.366536 0.000000 0.930404
0.727550 -0.105000 0.286414 -0.343511 0.000000 0.939148
0.727550 0.105000 0.286414 -0.343511 0.000000 0.939148
0.726760 -0.105000 0.286125 -0.343511 0.000000 0.939148
0.726760 0.105000 0.286125 -0.343511 0.000000 0.939148
0.726760 -0.105000 0.286125 -0.319855 0.000000 0.947466
0.726760 0.105000 0.286125 -0.319855 0.000000 0.947466
0.725964 -0.105000 0.285856 -0.319855 0.000000 0.947466
0.725964 0.105000 0.285856 -0.319855 0.000000 0.947466
0.725964 -0.105000 0.285856 -0.289042 0.000000 0.957316
0.725964 0.105000 0.285856 -0.289042 0.000000 0.957316
0.724754 -0.105000 0.285491 -0.289042 0.000000 0.957316
0.724754 0.105000 0.285491 -0.289042 0.000000 0.957316
0.724754 -0.105000 0.285491 -0.250639 0.000000 0.968081
0.724754 0.105000 0.285491 -0.250639 0.000000 0.968081
0.723533 -0.105000 0.285175 -0.250639 0.000000 0.968081
0.723533 0.105000 0.285175 -0.250639 0.000000 0.968081
0.723533 -0.105000 0.285175 -0.210789 0.000000 0.977532
0.723533 0.105000 0.285175 -0.210789 0.000000 0.977532
0.722305 -0.105000 0.284910 -0.210789 0.000000 0.977532
0.722305 0.105000 0.284910 -0.210789 0.000000 0.977532
0.722305 -0.105000 0.284910 -0.169933 0.000000 0.985456
0.722305 0.105000 0.284910 -0.169933 0.000000 0.985456
0.721068 -0.105000 0.284697 -0.169933 0.000000 0.985456
0.721068 0.105000 0.284697 -0.169933 0.000000 0.985456
0.721068 -0.105000 0.284697 -0.128295 0.000000 0.991736
0.721068 0.105000 0.284697 -0.128295 0.000000 0.991736
0.719750 -0.105000 0.284526 -0.128295 0.000000 0.991736
0.719750 0.105000 0.284526 -0.128295 0.000000 0.991736
0.719750 -0.105000 0.284526 -0.087074 0.000000 0.996202
0.719750 0.105000 0.284526 -0.087074 0.000000 0.996202
0.718421 -0.105000 0.284410 -0.087074 0.000000 0.996202
0.718421 0.105000 0.284410 -0.087074 0.000000 0.996202
0.718421 -0.105000 0.284410 -0.047578 0.000000 0.998867
0.718421 0.105000 0.284410 -0.047578 0.000000 0.998867
0.717080 -0.105000 0.284346 -0.047578 0.000000 0.998867
0.717080 0.105000 0.284346 -0.047578 0.000000 0.998867
0.717080 -0.105000 0.284346 -0.010019 0.000000 0.999950
0.717080 0.105000 0.284346 -0.010019 0.000000 0.999950
0.715730 -0.105000 0.284333 -0.010019 0.000000 0.999950
0.715730 0.105000 0.284333 -0.010019 0.000000 0.999950
0.715730 -0.105000 0.284333 0.019874 0.000000 0.999803
0.715730 0.105000 0.284333 0.019874 0.000000 0.999803
0.714824 -0.105000 0.284351 0.019874 0.000000 0.999803
0.714824 0.105000 0.284351 0.019874 0.000000 0.999803
0.714824 -0.105000 0.284351 0.042616 0.000000 0.999092
0.714824 0.105000 0.284351 0.042616 0.000000 0.999092
0.713915 -0.105000 0.284390 0.042616 0.000000 0.999092
0.713915 0.105000 0.284390 0.042616 0.000000 0.999092
0.713915 -0.105000 0.284390 0.064559 0.000000 0.997914
0.713915 0.105000 0.284390 0.064559 0.000000 0.997914
0.713001 -0.105000 0.284449 0.064559 0.000000 0.997914
0.713001 0.105000 0.284449 0.064559 0.000000 0.997914
0.713001 -0.105000 0.284449 0.085532 0.000000 0.996335
0.713001 0.105000 0.284449 0.085532 0.000000 0.996335
0.712084 -0.105000 0.284527 0.085532 0.000000 0.996335
0.712084 0.105000 0.284527 0.085532 0.000000 0.996335
0.712084 -0.105000 0.284527 0.106454 0.000000 0.994318
0.712084 0.105000 0.284527 0.106454 0.000000 0.994318
0.711082 -0.105000 0.284635 0.106454 0.000000 0.994318
0.711082 0.105000 0.284635 0.106454 0.000000 0.994318
0.711082 -0.105000 0.284635 0.127174 0.000000 0.991880
0.711082 0.105000 0.284635 0.127174 0.000000 0.991880
0.710077 -0.105000 0.284764 0.127174 0.000000 0.991880
0.710077 0.105000 0.284764 0.127174 0.000000 0.991880
0.710077 -0.105000 0.284764 0.147269 0.000000 0.989096
0.710077 0.105000 0.284764 0.147269 0.000000 0.989096
0.709024 -0.105000 0.284920 0.147269 0.000000 0.989096
0.709024 -0.105000 0.284920 0.147261 0.000000 0.989098
0.710077 0.105000 0.284764 0.147261 0.000000 0.989098
0.709024 0.105000 0.284920 0.147261 0.000000 0.989098
0.709024 -0.105000 0.284920 0.166699 0.000000 0.986008
0.709024 0.105000 0.284920 0.166699 0.000000 0.986008
0.707968 -0.105000 0.285099 0.166699 0.000000 0.986008
0.707968 -0.105000 0.285099 0.166708 0.000000 0.986006
0.709024 0.105000 0.284920 0.166708 0.000000 0.986006
0.707968 0.105000 0.285099 0.166708 0.000000 0.986006
0.707968 -0.105000 0.285099 0.193335 0.000000 0.981133
0.707968 0.105000 0.285099 0.193335 0.000000 0.981133
0.705889 -0.105000 0.285509 0.193335 0.000000 0.981133
0.705889 0.105000 0.285509 0.193335 0.000000 0.981133
0.705889 -0.105000 0.285509 0.225252 0.000000 0.974301
0.705889 0.105000 0.285509 0.225252 0.000000 0.974301
0.703798 -0.105000 0.285992 0.225252 0.000000 0.974301
0.703798 -0.105000 0.285992 0.225246 0.000000 0.974302
0.705889 0.105000 0.285509 0.225246 0.000000 0.974302
0.703798 0.105000 0.285992 0.225246 0.000000 0.974302
0.703798 -0.105000 0.285992 0.253432 0.000000 0.967353
0.703798 0.105000 0.285992 0.253432 0.000000 0.967353
0.701696 -0.105000 0.286543 0.253432 0.000000 0.967353
0.701696 -0.105000 0.286543 0.253438 0.000000 0.967352
0.703798 0.105000 0.285992 0.253438 0.000000 0.967352
0.701696 0.105000 0.286543 0.253438 0.000000 0.967352
0.701696 -0.105000 0.286543 0.278208 0.000000 0.960521
0.701696 0.105000 0.286543 0.278208 0.000000 0.960521
0.699586 -0.105000 0.287154 0.278208 0.000000 0.960521
0.699586 0.105000 0.287154 0.278208 0.000000 0.960521
0.699586 -0.105000 0.287154 0.297012 0.000000 0.954874
0.699586 0.105000 0.287154 0.297012 0.000000 0.954874
0.698064 -0.105000 0.287627 0.297012 0.000000 0.954874
0.698064 0.105000 0.287627 0.297012 0.000000 0.954874
0.698064 -0.105000 0.287627 0.311001 0.000000 0.950410
0.698064 0.105000 0.287627 0.311001 0.000000 0.950410
0.696537 -0.105000 0.288127 0.311001 0.000000 0.950410
0.696537 0.105000 0.288127 0.311001 0.000000 0.950410
0.696537 -0.105000 0.288127 0.324096 0.000000 0.946024
0.696537 0.105000 0.288127 0.324096 0.000000 0.946024
0.694876 -0.105000 0.288696 0.324096 0.000000 0.946024
0.694876 0.105000 0.288696 0.324096 0.000000 0.946024
0.694876 -0.105000 0.288696 0.336168 0.000000 0.941802
0.694876 0.105000 0.288696 0.336168 0.000000 0.941802
0.693210 -0.105000 0.289291 0.336168 0.000000 0.941802
0.693210 -0.105000 0.289291 0.336157 0.000000 0.941806
0.694876 0.105000 0.288696 0.336157 0.000000 0.941806
0.693210 0.105000 0.289291 0.336157 0.000000 0.941806
0.693210 -0.105000 0.289291 0.347540 0.000000 0.937665
0.693210 0.105000 0.289291 0.347540 0.000000 0.937665
0.691275 -0.105000 0.290008 0.347540 0.000000 0.937665
0.691275 0.105000 0.290008 0.347540 0.000000 0.937665
0.691275 -0.105000 0.290008 0.357917 0.000000 0.933753
0.691275 0.105000 0.290008 0.357917 0.000000 0.933753
0.689335 -0.105000 0.290751 0.357917 0.000000 0.933753
0.689335 -0.105000 0.290751 0.357926 0.000000 0.933750
0.691275 0.105000 0.290008 0.357926 0.000000 0.933750
0.689335 0.105000 0.290751 0.357926 0.000000 0.933750
0.689335 -0.105000 0.290751 0.368383 0.000000 0.929674
0.689335 0.105000 0.290751 0.368383 0.000000 0.929674
0.686420 -0.105000 0.291906 0.368383 0.000000 0.929674
0.686420 0.105000 0.291906 0.368383 0.000000 0.929674
0.686420 -0.105000 0.291906 0.377658 0.000000 0.925945
0.686420 0.105000 0.291906 0.377658 0.000000 0.925945
0.683493 -0.105000 0.293100 0.377658 0.000000 0.925945
0.683493 0.105000 0.293100 0.377658 0.000000 0.925945
0.683493 -0.105000 0.293100 0.384463 0.000000 0.923141
0.683493 0.105000 0.293100 0.384463 0.000000 0.923141
0.678581 -0.105000 0.295146 0.384463 0.000000 0.923141
0.678581 0.105000 0.295146 0.384463 0.000000 0.923141
0.678581 -0.105000 0.295146 0.385202 0.000000 0.922832
0.678581 0.105000 0.295146 0.385202 0.000000 0.922832
0.673638 -0.105000 0.297209 0.385202 0.000000 0.922832
0.673638 0.105000 0.297209 0.385202 0.000000 0.922832
0.673638 -0.105000 0.297209 0.378002 0.000000 0.925805
0.673638 0.105000 0.297209 0.378002 0.000000 0.925805
0.669305 -0.105000 0.298978 0.378002 0.000000 0.925805
0.669305 -0.105000 0.298978 0.377997 0.000000 0.925807
0.673638 0.105000 0.297209 0.377997 0.000000 0.925807
0.669305 0.105000 0.298978 0.377997 0.000000 0.925807
0.669305 -0.105000 0.298978 0.368484 0.000000 0.929634
0.669305 0.105000 0.298978 0.368484 0.000000 0.929634
0.667133 -0.105000 0.299839 0.368484 0.000000 0.929634
0.667133 -0.105000 0.299839 0.368493 0.000000 0.929631
0.669305 0.105000 0.298978 0.368493 0.000000 0.929631
0.667133 0.105000 0.299839 0.368493 0.000000 0.929631
0.667133 -0.105000 0.299839 0.358962 0.000000 0.933352
0.667133 0.105000 0.299839 0.358962 0.000000 0.933352
0.664578 -0.105000 0.300822 0.358962 0.000000 0.933352
0.664578 0.105000 0.300822 0.358962 0.000000 0.933352
0.664578 -0.105000 0.300822 0.346244 0.000000 0.938145
0.664578 0.105000 0.300822 0.346244 0.000000 0.938145
0.662020 -0.105000 0.301766 0.346244 0.000000 0.938145
0.662020 0.105000 0.301766 0.346244 0.000000 0.938145
0.662020 -0.105000 0.301766 0.329666 0.000000 0.944098
0.662020 0.105000 0.301766 0.329666 0.000000 0.944098
0.659104 -0.105000 0.302784 0.329666 0.000000 0.944098
0.659104 0.105000 0.302784 0.329666 0.000000 0.944098
0.659104 -0.105000 0.302784 0.314284 0.000000 0.949329
0.659104 0.105000 0.302784 0.314284 0.000000 0.949329
0.657645 -0.105000 0.303267 0.314284 0.000000 0.949329
0.657645 -0.105000 0.303267 0.314272 0.000000 0.949333
0.659104 0.105000 0.302784 0.314272 0.000000 0.949333
0.657645 0.105000 0.303267 0.314272 0.000000 0.949333
0.657645 -0.105000 0.303267 0.302712 0.000000 0.953082
0.657645 0.105000 0.303267 0.302712 0.000000 0.953082
0.656186 -0.105000 0.303731 0.302712 0.000000 0.953082
0.656186 0.105000 0.303731 0.302712 0.000000 0.953082
0.656186 -0.105000 0.303731 0.287953 0.000000 0.957644
0.656186 0.105000 0.303731 0.287953 0.000000 0.957644
0.654240 -0.105000 0.304316 0.287953 0.000000 0.957644
0.654240 0.105000 0.304316 0.287953 0.000000 0.957644
0.654240 -0.105000 0.304316 0.269336 0.000000 0.963046
0.654240 0.105000 0.304316 0.269336 0.000000 0.963046
0.652294 -0.105000 0.304860 0.269336 0.000000 0.963046
0.652294 -0.105000 0.304860 0.269344 0.000000 0.963044
0.654240 0.105000 0.304316 0.269344 0.000000 0.963044
0.652294 0.105000 0.304860 0.269344 0.000000 0.963044
0.652294 -0.105000 0.304860 0.248789 0.000000 0.968558
0.652294 0.105000 0.304860 0.248789 0.000000 0.968558
0.650347 -0.105000 0.305360 0.248789 0.000000 0.968558
0.650347 0.105000 0.305360 0.248789 0.000000 0.968558
0.650347 -0.105000 0.305360 0.230373 0.000000 0.973103
0.650347 0.105000 0.305360 0.230373 0.000000 0.973103
0.649096 -0.105000 0.305656 0.230373 0.000000 0.973103
0.649096 0.105000 0.305656 0.230373 0.000000 0.973103
0.649096 -0.105000 0.305656 0.214954 0.000000 0.976624
0.649096 0.105000 0.305656 0.214954 0.000000 0.976624
0.647845 -0.105000 0.305932 0.214954 0.000000 0.976624
0.647845 -0.105000 0.305932 0.214944 0.000000 0.976626
0.649096 0.105000 0.305656 0.214944 0.000000 0.976626
0.647845 0.105000 0.305932 0.214944 0.000000 0.976626
0.647845 -0.105000 0.305932 0.195739 0.000000 0.980656
0.647845 0.105000 0.305932 0.195739 0.000000 0.980656
0.646177 -0.105000 0.306265 0.195739 0.000000 0.980656
0.646177 -0.105000 0.306265 0.195745 0.000000 0.980655
0.647845 0.105000 0.305932 0.195745 0.000000 0.980655
0.646177 0.105000 0.306265 0.195745 0.000000 0.980655
0.646177 -0.105000 0.306265 0.172245 0.000000 0.985054
0.646177 0.105000 0.306265 0.172245 0.000000 0.985054
0.644510 -0.105000 0.306556 0.172245 0.000000 0.985054
0.644510 0.105000 0.306556 0.172245 0.000000 0.985054
0.644510 -0.105000 0.306556 0.147008 0.000000 0.989135
0.644510 0.105000 0.306556 0.147008 0.000000 0.989135
0.642843 -0.105000 0.306804 0.147008 0.000000 0.989135
0.642843 0.105000 0.306804 0.147008 0.000000 0.989135
0.642843 -0.105000 0.306804 0.118203 0.000000 0.992989
0.642843 0.105000 0.306804 0.118203 0.000000 0.992989
0.640970 -0.105000 0.307027 0.118203 0.000000 0.992989
0.640970 0.105000 0.307027 0.118203 0.000000 0.992989
0.640970 -0.105000 0.307027 0.085481 0.000000 0.996340
0.640970 0.105000 0.307027 0.085481 0.000000 0.996340
0.639099 -0.105000 0.307187 0.085481 0.000000 0.996340
0.639099 0.105000 0.307187 0.085481 0.000000 0.996340
0.639099 -0.105000 0.307187 0.050459 0.000000 0.998726
0.639099 0.105000 0.307187 0.050459 0.000000 0.998726
0.637233 -0.105000 0.307282 0.050459 0.000000 0.998726
0.637233 0.105000 0.307282 0.050459 0.000000 0.998726
0.637233 -0.105000 0.307282 0.013139 0.000000 0.999914
0.637233 0.105000 0.307282 0.013139 0.000000 0.999914
0.635370 -0.105000 0.307306 0.013139 0.000000 0.999914
0.635370 0.105000 0.307306 0.013139 0.000000 0.999914
0.635370 -0.105000 0.307306 -0.016666 0.000000 0.999861
0.635370 0.105000 0.307306 -0.016666 0.000000 0.999861
0.634401 -0.105000 0.307290 -0.016666 0.000000 0.999861
0.634401 -0.105000 0.307290 -0.016665 -0.000000 0.999861
0.635370 0.105000 0.307306 -0.016665 -0.000000 0.999861
0.634401 0.105000 0.307290 -0.016665 -0.000000 0.999861
0.634401 -0.105000 0.307290 -0.037870 -0.000000 0.999283
0.634401 0.105000 0.307290 -0.037870 -0.000000 0.999283
0.633434 -0.105000 0.307253 -0.037870 -0.000000 0.999283
0.633434 -0.105000 0.307253 -0.037873 0.000000 0.999283
0.634401 0.105000 0.307290 -0.037873 0.000000 0.999283
0.633434 0.105000 0.307253 -0.037873 0.000000 0.999283
0.633434 -0.105000 0.307253 -0.059437 0.000000 0.998232
0.633434 0.105000 0.307253 -0.059437 0.000000 0.998232
0.632481 -0.105000 0.307197 -0.059437 0.000000 0.998232
0.632481 0.105000 0.307197 -0.059437 0.000000 0.998232
0.632481 -0.105000 0.307197 -0.081464 0.000000 0.996676
0.632481 0.105000 0.307197 -0.081464 0.000000 0.996676
0.631529 -0.105000 0.307119 -0.081464 0.000000 0.996676
0.631529 0.105000 0.307119 -0.081464 0.000000 0.996676
0.631529 -0.105000 0.307119 -0.107837 0.000000 0.994169
0.631529 0.105000 0.307119 -0.107837 0.000000 0.994169
0.630257 -0.105000 0.306981 -0.107837 0.000000 0.994169
0.630257 0.105000 0.306981 -0.107837 0.000000 0.994169
0.630257 -0.105000 0.306981 -0.138722 0.000000 0.990331
0.630257 0.105000 0.306981 -0.138722 0.000000 0.990331
0.628989 -0.105000 0.306803 -0.138722 0.000000 0.990331
0.628989 0.105000 0.306803 -0.138722 0.000000 0.990331
0.628989 -0.105000 0.306803 -0.170319 0.000000 0.985389
0.628989 0.105000 0.306803 -0.170319 0.000000 0.985389
0.627727 -0.105000 0.306585 -0.170319 0.000000 0.985389
0.627727 0.105000 0.306585 -0.170319 0.000000 0.985389
0.627727 -0.105000 0.306585 -0.206544 0.000000 0.978437
0.627727 0.105000 0.306585 -0.206544 0.000000 0.978437
0.626157 -0.105000 0.306254 -0.206544 0.000000 0.978437
0.626157 0.105000 0.306254 -0.206544 0.000000 0.978437
0.626157 -0.105000 0.306254 -0.247360 0.000000 0.968924
0.626157 0.105000 0.306254 -0.247360 0.000000 0.968924
0.624598 -0.105000 0.305856 -0.247360 0.000000 0.968924
0.624598 -0.105000 0.305856 -0.247351 -0.000000 0.968926
0.626157 0.105000 0.306254 -0.247351 -0.000000 0.968926
0.624598 0.105000 0.305856 -0.247351 -0.000000 0.968926
0.624598 -0.105000 0.305856 -0.288511 -0.000000 0.957477
0.624598 0.105000 0.305856 -0.288511 -0.000000 0.957477
0.623050 -0.105000 0.305389 -0.288511 -0.000000 0.957477
0.623050 -0.105000 0.305389 -0.288521 0.000000 0.957474
0.624598 0.105000 0.305856 -0.288521 0.000000 0.957474
0.623050 0.105000 0.305389 -0.288521 0.000000 0.957474
0.623050 -0.105000 0.305389 -0.329673 0.000000 0.944095
0.623050 0.105000 0.305389 -0.329673 0.000000 0.944095
0.621513 -0.105000 0.304853 -0.329673 0.000000 0.944095
0.621513 0.105000 0.304853 -0.329673 0.000000 0.944095
0.621513 -0.105000 0.304853 -0.370629 0.000000 0.928781
0.621513 0.105000 0.304853 -0.370629 0.000000 0.928781
0.619990 -0.105000 0.304245 -0.370629 0.000000 0.928781
0.619990 0.105000 0.304245 -0.370629 0.000000 0.928781
0.619990 -0.105000 0.304245 -0.410998 0.000000 0.911636
0.619990 0.105000 0.304245 -0.410998 0.000000 0.911636
0.618482 -0.105000 0.303565 -0.410998 0.000000 0.911636
0.618482 0.105000 0.303565 -0.410998 0.000000 0.911636
0.618482 -0.105000 0.303565 -0.450228 0.000000 0.892914
0.618482 0.105000 0.303565 -0.450228 0.000000 0.892914
0.617007 -0.105000 0.302821 -0.450228 0.000000 0.892914
0.617007 0.105000 0.302821 -0.450228 0.000000 0.892914
0.617007 -0.105000 0.302821 -0.488089 0.000000 0.872794
0.617007 0.105000 0.302821 -0.488089 0.000000 0.872794
0.615548 -0.105000 0.302005 -0.488089 0.000000 0.872794
0.615548 0.105000 0.302005 -0.488089 0.000000 0.872794
0.615548 -0.105000 0.302005 -0.524609 0.000000 0.851343
0.615548 0.105000 0.302005 -0.524609 0.000000 0.851343
0.614107 -0.105000 0.301117 -0.524609 0.000000 0.851343
0.614107 -0.105000 0.301117 -0.524593 -0.000000 0.851353
0.615548 0.105000 0.302005 -0.524593 -0.000000 0.851353
0.614106 0.105000 0.301117 -0.524593 -0.000000 0.851353
0.614107 -0.105000 0.301117 -0.559556 -0.000000 0.828792
0.614106 0.105000 0.301117 -0.559556 -0.000000 0.828792
0.612683 -0.105000 0.300156 -0.559556 -0.000000 0.828792
0.612683 -0.105000 0.300156 -0.559572 0.000000 0.828781
0.614106 0.105000 0.301117 -0.559572 0.000000 0.828781
0.612683 0.105000 0.300156 -0.559572 0.000000 0.828781
0.612683 -0.105000 0.300156 -0.592800 0.000000 0.805350
0.612683 0.105000 0.300156 -0.592800 0.000000 0.805350
0.611279 -0.105000 0.299122 -0.592800 0.000000 0.805350
0.611279 0.105000 0.299122 -0.592800 0.000000 0.805350
0.611279 -0.105000 0.299122 -0.624254 0.000000 0.781222
0.611279 0.105000 0.299122 -0.624254 0.000000 0.781222
0.609895 -0.105000 0.298016 -0.624254 0.000000 0.781222
0.609895 0.105000 0.298016 -0.624254 0.000000 0.781222
0.609895 -0.105000 0.298016 -0.653803 0.000000 0.756665
0.609895 0.105000 0.298016 -0.653803 0.000000 0.756665
0.608532 -0.105000 0.296839 -0.653803 0.000000 0.756665
0.608532 -0.105000 0.296839 -0.653786 -0.000000 0.756679
0.609895 0.105000 0.298016 -0.653786 -0.000000 0.756679
0.608532 0.105000 0.296839 -0.653786 -0.000000 0.756679
0.608532 -0.105000 0.296839 -0.681440 -0.000000 0.731874
0.608532 0.105000 0.296839 -0.681440 -0.000000 0.731874
0.607190 -0.105000 0.295590 -0.681440 -0.000000 0.731874
0.607190 -0.105000 0.295590 -0.681456 0.000000 0.731859
0.608532 0.105000 0.296839 -0.681456 0.000000 0.731859
0.607190 0.105000 0.295590 -0.681456 0.000000 0.731859
0.607190 -0.105000 0.295590 -0.704244 0.000000 0.709958
0.607190 0.105000 0.295590 -0.704244 0.000000 0.709958
0.606183 -0.105000 0.294591 -0.704244 0.000000 0.709958
0.606183 -0.105000 0.294591 -0.704223 -0.000000 0.709979
0.607190 0.105000 0.295590 -0.704223 -0.000000 0.709979
0.606183 0.105000 0.294591 -0.704223 -0.000000 0.709979
0.606183 -0.105000 0.294591 -0.722681 -0.000000 0.691182
0.606183 0.105000 0.294591 -0.722681 -0.000000 0.691182
0.605189 -0.105000 0.293551 -0.722681 -0.000000 0.691182
0.605189 -0.105000 0.293551 -0.722701 0.000000 0.691161
0.606183 0.105000 0.294591 -0.722701 0.000000 0.691161
0.605189 0.105000 0.293551 -0.722701 0.000000 0.691161
0.605189 -0.105000 0.293551 -0.740153 0.000000 0.672439
0.605189 0.105000 0.293551 -0.740153 0.000000 0.672439
0.604209 -0.105000 0.292472 -0.740153 0.000000 0.672439
0.604209 0.105000 0.292472 -0.740153 0.000000 0.672439
0.604209 -0.105000 0.292472 -0.754570 0.000000 0.656220
0.604209 0.105000 0.292472 -0.754570 0.000000 0.656220
0.603482 -0.105000 0.291637 -0.754570 0.000000 0.656220
0.603482 0.105000 0.291637 -0.754570 0.000000 0.656220
0.603482 -0.105000 0.291637 -0.766302 0.000000 0.642480
0.603482 0.105000 0.291637 -0.766302 0.000000 0.642480
0.602764 -0.105000 0.290780 -0.766302 0.000000 0.642480
0.602764 0.105000 0.290780 -0.766302 0.000000 0.642480
0.602764 -0.105000 0.290780 -0.782864 0.000000 0.622193
0.602764 0.105000 0.290780 -0.782864 0.000000 0.622193
0.601350 -0.105000 0.289001 -0.782864 0.000000 0.622193
0.601350 0.105000 0.289001 -0.782864 0.000000 0.622193
0.601350 -0.105000 0.289001 -0.803151 0.000000 0.595776
0.601350 0.105000 0.289001 -0.803151 0.000000 0.595776
0.599969 -0.105000 0.287139 -0.803151 0.000000 0.595776
0.599969 0.105000 0.287139 -0.803151 0.000000 0.595776
0.599969 -0.105000 0.287139 -0.821491 0.000000 0.570222
0.599969 0.105000 0.287139 -0.821491 0.000000 0.570222
0.598620 -0.105000 0.285196 -0.821491 0.000000 0.570222
0.598620 0.105000 0.285196 -0.821491 0.000000 0.570222
3 0 1 2
3 2 1 3
3 4 5 6
3 7 8 9
3 10 11 12
3 13 14 15
3 16 17 18
3 18 17 19
3 20 21 22
3 22 21 23
3 24 25 26
3 26 25 27
3 28 29 30
3 30 29 31
3 32 33 34
3 34 33 35
3 36 37 38
3 39 40 41
3 42 43 44
3 45 46 47
3 48 49 50
3 50 49 51
3 52 53 54
3 54 53 55
3 56 57 58
3 59 60 61
3 62 63 64
3 65 66 67
3 68 69 70
3 70 69 71
3 72 73 74
3 75 76 77
3 78 79 80
3 80 79 81
3 82 83 84
3 84 83 85
3 86 87 88
3 88 87 89
3 90 91 92
3 92 91 93
3 94 95 96
3 96 95 97
3 98 99 100
3 100 99 101
3 102 103 104
3 105 106 107
3 108 109 110
3 110 109 111
3 112 113 114
3 115 116 117
3 118 119 120
3 120 119 121
3 122 123 124
3 124 123 125
3 126 127 128
3 128 127 129
3 130 131 132
3 132 131 133
3 134 135 136
3 136 135 137
3 138 139 140
3 140 139 141
3 142 143 144
3 144 143 145
3 146 147 148
3 149 150 151
3 152 153 154
3 154 153 155
3 156 157 158
3 159 160 161
3 162 163 164
3 164 163 165
3 166 167 168
3 168 167 169
3 170 171 172
3 172 171 173
3 174 175 176
3 177 178 179
3 180 181 182
3 182 181 183
3 184 185 186
3 186 185 187
3 188 189 190
3 190 189 191
3 192 193 194
3 195 196 197
3 198 199 200
3 200 199 201
3 202 203 204
3 204 203 205
3 206 207 208
3 208 207 209
3 210 211 212
3 212 211 213
3 214 215 216
3 216 215 217
3 218 219 220
3 220 219 221
3 222 223 224
3 224 223 225
3 226 227 228
3 229 230 231
3 232 233 234
3 235 236 237
3 238 239 240
3 240 239 241
3 242 243 244
3 244 243 245
3 246 247 248
3 248 247 249
3 250 251 252
3 252 251 253
3 254 255 256
3 256 255 257
3 258 259 260
3 260 259 261
3 262 263 264
3 264 263 265
3 266 267 268
3 268 267 269
3 270 271 272
3 272 271 273
3 274 275 276
3 276 275 277
3 278 279 280
3 280 279 281
3 282 283 284
3 284 283 285
3 286 287 288
3 288 287 289
3 290 291 292
3 293 294 295
3 296 297 298
3 299 300 301
3 302 303 304
3 304 303 305
3 306 307 308
3 308 307 309
3 310 311 312
3 312 311 313
3 314 315 316
3 316 315 317
3 318 319 320
3 320 319 321
3 322 323 324
3 324 323 325
3 326 327 328
3 329 330 331
3 332 333 334
3 335 336 337
3 338 339 340
3 340 339 341
3 342 343 344
3 344 343 345
3 346 347 348
3 348 347 349
3 350 351 352
3 352 351 353
3 354 355 356
3 356 355 357
3 358 359 360
3 360 359 361
3 362 363 364
3 364 363 365
3 366 367 368
3 368 367 369
3 370 371 372
3 372 371 373
3 374 375 376
3 376 375 377
3 378 379 380
3 380 379 381
3 382 383 384
3 384 383 385
3 386 387 388
3 388 387 389
3 390 391 392
3 392 391 393
3 394 395 396
3 396 395 397
3 398 399 400
3 400 399 401
3 402 403 404
3 404 403 405
3 406 407 408
3 409 410 411
3 412 413 414
3 415 416 417
3 418 419 420
3 420 419 421
3 422 423 424
3 425 426 427
3 428 429 430
3 431 432 433
3 434 435 436
3 436 435 437
3 438 439 440
3 440 439 441
3 442 443 444
3 444 443 445
3 446 447 448
3 448 447 449
3 450 451 452
3 453 454 455
3 456 457 458
3 458 457 459
3 460 461 462
3 463 464 465
3 466 467 468
3 468 467 469
3 470 471 472
3 472 471 473
3 474 475 476
3 476 475 477
3 478 479 480
3 480 479 481
3 482 483 484
3 485 486 487
3 488 489 490
3 491 492 493
3 494 495 496
3 496 495 497
3 498 499 500
3 500 499 501
3 502 503 504
3 504 503 505
3 506 507 508
3 509 510 511
3 512 513 514
3 514 513 515
3 516 517 518
3 518 517 519
3 520 521 522
3 523 524 525
3 526 527 528
3 528 527 529
3 530 531 532
3 532 531 533
3 534 535 536
3 537 538 539
3 540 541 542
3 543 544 545
3 546 547 548
3 548 547 549
3 550 551 552
3 552 551 553
3 554 555 556
3 556 555 557
3 558 559 560
3 560 559 561
3 562 563 564
3 564 563 565
3 566 567 568
3 568 567 569
3 570 571 572
3 573 574 575
3 576 577 578
3 579 580 581
3 582 583 584
3 584 583 585
3 586 587 588
3 588 587 589
3 590 591 592
3 592 591 593
3 594 595 596
3 596 595 597
3 598 599 600
3 600 599 601
3 602 603 604
3 604 603 605
3 606 607 608
3 609 610 611
3 612 613 614
3 615 616 617
3 618 619 620
3 620 619 621
3 622 623 624
3 624 623 625
3 626 627 628
3 628 627 629
3 630 631 632
3 632 631 633
3 634 635 636
3 636 635 637
3 638 639 640
3 641 642 643
3 644 645 646
3 647 648 649
3 650 651 652
3 652 651 653
3 654 655 656
3 656 655 657
3 658 659 660
3 661 662 663
3 664 665 666
3 667 668 669
3 670 671 672
3 673 674 675
3 676 677 678
3 679 680 681
3 682 683 684
3 684 683 685
3 686 687 688
3 688 687 689
3 690 691 692
3 692 691 693
3 694 695 696
3 696 695 697
3 698 699 700
3 700 699 701
3 702 703 704
3 704 703 705
