ply
format ascii 1.0
comment Created by Blender 2.82 (sub 7) - www.blender.org, source file: 'pieza_surf.blend'
element vertex 638
property float x
property float y
property float z
property float nx
property float ny
property float nz
element face 312
property list uchar uint vertex_indices
end_header
0.828620 0.125000 0.365196 -0.000000 0.425970 0.904738
0.618620 0.125000 0.365196 -0.000000 0.425970 0.904738
0.828620 0.122983 0.366145 -0.000000 0.425970 0.904738
0.828620 0.122983 0.366145 -0.000000 0.425968 0.904738
0.618620 0.125000 0.365196 -0.000000 0.425968 0.904738
0.618620 0.122983 0.366145 -0.000000 0.425968 0.904738
0.828620 0.122983 0.366145 -0.000000 0.394899 0.918725
0.618620 0.122983 0.366145 -0.000000 0.394899 0.918725
0.828620 0.120974 0.367009 -0.000000 0.394899 0.918725
0.618620 0.120974 0.367009 -0.000000 0.394899 0.918725
0.828620 0.120974 0.367009 -0.000000 0.361771 0.932267
0.618620 0.120974 0.367009 -0.000000 0.361771 0.932267
0.828620 0.118975 0.367785 -0.000000 0.361771 0.932267
0.618620 0.118975 0.367785 -0.000000 0.361771 0.932267
0.828620 0.118975 0.367785 -0.000000 0.335584 0.942010
0.618620 0.118975 0.367785 -0.000000 0.335584 0.942010
0.828620 0.117977 0.368140 -0.000000 0.335584 0.942010
0.618620 0.117976 0.368140 -0.000000 0.335584 0.942010
0.828620 0.117977 0.368140 -0.000000 0.317397 0.948293
0.618620 0.117976 0.368140 -0.000000 0.317397 0.948293
0.828620 0.116981 0.368473 -0.000000 0.317397 0.948293
0.618620 0.116981 0.368473 -0.000000 0.317397 0.948293
0.828620 0.116981 0.368473 -0.000000 0.298776 0.954323
0.618620 0.116981 0.368473 -0.000000 0.298776 0.954323
0.828620 0.115993 0.368783 -0.000000 0.298776 0.954323
0.618620 0.115993 0.368783 -0.000000 0.298776 0.954323
0.828620 0.115993 0.368783 -0.000000 0.279759 0.960070
0.618620 0.115993 0.368783 -0.000000 0.279759 0.960070
0.828620 0.115009 0.369070 -0.000000 0.279759 0.960070
0.618620 0.115009 0.369070 -0.000000 0.279759 0.960070
0.828620 0.115009 0.369070 -0.000000 0.253484 0.967340
0.618620 0.115009 0.369070 -0.000000 0.253484 0.967340
0.828620 0.113371 0.369499 -0.000000 0.253484 0.967340
0.618620 0.113371 0.369499 -0.000000 0.253484 0.967340
0.828620 0.113371 0.369499 -0.000000 0.219496 0.975613
0.618620 0.113371 0.369499 -0.000000 0.219496 0.975613
0.828620 0.111744 0.369865 -0.000000 0.219496 0.975613
0.618620 0.111744 0.369865 -0.000000 0.219496 0.975613
0.828620 0.111744 0.369865 -0.000000 0.184382 0.982855
0.618620 0.111744 0.369865 -0.000000 0.184382 0.982855
0.828620 0.110127 0.370168 -0.000000 0.184382 0.982855
0.618620 0.110127 0.370168 -0.000000 0.184382 0.982855
0.828620 0.110127 0.370168 -0.000000 0.148013 0.988985
0.618620 0.110127 0.370168 -0.000000 0.148013 0.988985
0.828620 0.108521 0.370409 -0.000000 0.148013 0.988985
0.618620 0.108521 0.370409 -0.000000 0.148013 0.988985
0.828620 0.108521 0.370409 -0.000000 0.110755 0.993848
0.618620 0.108521 0.370409 -0.000000 0.110755 0.993848
0.828620 0.106928 0.370586 -0.000000 0.110755 0.993848
0.618620 0.106927 0.370586 -0.000000 0.110755 0.993848
0.828620 0.106928 0.370586 -0.000000 0.072692 0.997354
0.618620 0.106927 0.370586 -0.000000 0.072692 0.997354
0.828620 0.105347 0.370701 -0.000000 0.072692 0.997354
0.618620 0.105347 0.370701 -0.000000 0.072692 0.997354
0.828620 0.105347 0.370701 -0.000000 0.031264 0.999511
0.618620 0.105347 0.370701 -0.000000 0.031264 0.999511
0.828620 0.103557 0.370757 -0.000000 0.031264 0.999511
0.618620 0.103557 0.370757 -0.000000 0.031264 0.999511
0.828620 0.103557 0.370757 0.000000 -0.013377 0.999911
0.618620 0.103557 0.370757 0.000000 -0.013377 0.999911
0.828620 0.101786 0.370734 0.000000 -0.013377 0.999911
0.618620 0.101786 0.370734 0.000000 -0.013377 0.999911
0.828620 0.101786 0.370734 0.000000 -0.058227 0.998303
0.618620 0.101786 0.370734 0.000000 -0.058227 0.998303
0.828620 0.100034 0.370631 0.000000 -0.058227 0.998303
0.618620 0.100034 0.370631 0.000000 -0.058227 0.998303
0.828620 0.100034 0.370631 0.000000 -0.102926 0.994689
0.618620 0.100034 0.370631 0.000000 -0.102926 0.994689
0.828620 0.098302 0.370452 0.000000 -0.102926 0.994689
0.618620 0.098302 0.370452 0.000000 -0.102926 0.994689
0.828620 0.098302 0.370452 0.000000 -0.147159 0.989113
0.618620 0.098302 0.370452 0.000000 -0.147159 0.989113
0.828620 0.096589 0.370197 0.000000 -0.147159 0.989113
0.618620 0.096589 0.370197 0.000000 -0.147159 0.989113
0.828620 0.096589 0.370197 0.000000 -0.190617 0.981664
0.618620 0.096589 0.370197 0.000000 -0.190617 0.981664
0.828620 0.094897 0.369869 0.000000 -0.190617 0.981664
0.618620 0.094897 0.369869 0.000000 -0.190617 0.981664
0.828620 0.094897 0.369869 0.000000 -0.232953 0.972488
0.618620 0.094897 0.369869 0.000000 -0.232953 0.972488
0.828620 0.093225 0.369468 0.000000 -0.232953 0.972488
0.618620 0.093225 0.369468 0.000000 -0.232953 0.972488
0.828620 0.093225 0.369468 0.000000 -0.273976 0.961737
0.618620 0.093225 0.369468 0.000000 -0.273976 0.961737
0.828620 0.091575 0.368998 0.000000 -0.273976 0.961737
0.618620 0.091575 0.368998 0.000000 -0.273976 0.961737
0.828620 0.091575 0.368998 0.000000 -0.313448 0.949605
0.618620 0.091575 0.368998 0.000000 -0.313448 0.949605
0.828620 0.089945 0.368460 0.000000 -0.313448 0.949605
0.828620 0.089945 0.368460 0.000000 -0.313448 0.949606
0.618620 0.091575 0.368998 0.000000 -0.313448 0.949606
0.618620 0.089945 0.368460 0.000000 -0.313448 0.949606
0.828620 0.089945 0.368460 0.000000 -0.351693 0.936115
0.618620 0.089945 0.368460 0.000000 -0.351693 0.936115
0.828620 0.088292 0.367839 0.000000 -0.351693 0.936115
0.618620 0.088292 0.367839 0.000000 -0.351693 0.936115
0.828620 0.088292 0.367839 0.000000 -0.388627 0.921395
0.618620 0.088292 0.367839 0.000000 -0.388627 0.921395
0.828620 0.086660 0.367151 0.000000 -0.388627 0.921395
0.618620 0.086660 0.367151 0.000000 -0.388627 0.921395
0.828620 0.086660 0.367151 0.000000 -0.423393 0.905946
0.618620 0.086660 0.367151 0.000000 -0.423393 0.905946
0.828620 0.085052 0.366399 0.000000 -0.423393 0.905946
0.618620 0.085052 0.366399 0.000000 -0.423393 0.905946
0.828620 0.085052 0.366399 0.000000 -0.456129 0.889913
0.618620 0.085052 0.366399 0.000000 -0.456129 0.889913
0.828620 0.083465 0.365586 0.000000 -0.456129 0.889913
0.618620 0.083465 0.365586 0.000000 -0.456129 0.889913
0.828620 0.083465 0.365586 0.000000 -0.486800 0.873513
0.618620 0.083465 0.365586 0.000000 -0.486800 0.873513
0.828620 0.081900 0.364714 0.000000 -0.486800 0.873513
0.618620 0.081900 0.364714 0.000000 -0.486800 0.873513
0.828620 0.081900 0.364714 0.000000 -0.513054 0.858356
0.618620 0.081900 0.364714 0.000000 -0.513054 0.858356
0.828620 0.080613 0.363944 0.000000 -0.513054 0.858356
0.618620 0.080613 0.363944 0.000000 -0.513054 0.858356
0.828620 0.080613 0.363944 0.000000 -0.535471 0.844554
0.618620 0.080613 0.363944 0.000000 -0.535471 0.844554
0.828620 0.079340 0.363138 0.000000 -0.535471 0.844554
0.618620 0.079340 0.363138 0.000000 -0.535471 0.844554
0.828620 0.079340 0.363138 0.000000 -0.556500 0.830848
0.618620 0.079340 0.363138 0.000000 -0.556500 0.830848
0.828620 0.078082 0.362295 0.000000 -0.556500 0.830848
0.618620 0.078082 0.362295 0.000000 -0.556500 0.830848
0.828620 0.078082 0.362295 0.000000 -0.573834 0.818971
0.618620 0.078082 0.362295 0.000000 -0.573834 0.818971
0.828620 0.077148 0.361640 0.000000 -0.573834 0.818971
0.618620 0.077148 0.361640 0.000000 -0.573834 0.818971
0.828620 0.077148 0.361640 0.000000 -0.587902 0.808932
0.618620 0.077148 0.361640 0.000000 -0.587902 0.808932
0.828620 0.076222 0.360967 0.000000 -0.587902 0.808932
0.618620 0.076222 0.360967 0.000000 -0.587902 0.808932
0.828620 0.076222 0.360967 0.000000 -0.601649 0.798760
0.618620 0.076222 0.360967 0.000000 -0.601649 0.798760
0.828620 0.075253 0.360237 0.000000 -0.601649 0.798760
0.618620 0.075253 0.360237 0.000000 -0.601649 0.798760
0.828620 0.075253 0.360237 0.000000 -0.615000 0.788527
0.618620 0.075253 0.360237 0.000000 -0.615000 0.788527
0.828620 0.074293 0.359488 0.000000 -0.615000 0.788527
0.618620 0.074293 0.359488 0.000000 -0.615000 0.788527
0.828620 0.074293 0.359488 0.000000 -0.627982 0.778228
0.618620 0.074293 0.359488 0.000000 -0.627982 0.778228
0.828620 0.073295 0.358683 0.000000 -0.627982 0.778228
0.618620 0.073294 0.358683 0.000000 -0.627982 0.778228
0.828620 0.073295 0.358683 0.000000 -0.640501 0.767957
0.618620 0.073294 0.358683 0.000000 -0.640501 0.767957
0.828620 0.072305 0.357858 0.000000 -0.640501 0.767957
0.618620 0.072305 0.357858 0.000000 -0.640501 0.767957
0.828620 0.072305 0.357858 0.000000 -0.657661 0.753314
0.618620 0.072305 0.357858 0.000000 -0.657661 0.753314
0.828620 0.070395 0.356190 0.000000 -0.657661 0.753314
0.618620 0.070395 0.356190 0.000000 -0.657661 0.753314
0.828620 0.070395 0.356190 0.000000 -0.678229 0.734850
0.618620 0.070395 0.356190 0.000000 -0.678229 0.734850
0.828620 0.068515 0.354455 0.000000 -0.678229 0.734850
0.618620 0.068515 0.354455 0.000000 -0.678229 0.734850
0.828620 0.068515 0.354455 0.000000 -0.696487 0.717569
0.618620 0.068515 0.354455 0.000000 -0.696487 0.717569
0.828620 0.066663 0.352657 0.000000 -0.696487 0.717569
0.618620 0.066663 0.352657 0.000000 -0.696487 0.717569
0.828620 0.066663 0.352657 0.000000 -0.709552 0.704653
0.618620 0.066663 0.352657 0.000000 -0.709552 0.704653
0.828620 0.065579 0.351566 0.000000 -0.709552 0.704653
0.618620 0.065579 0.351566 0.000000 -0.709552 0.704653
0.828620 0.065579 0.351566 0.000000 -0.718448 0.695581
0.618620 0.065579 0.351566 0.000000 -0.718448 0.695581
0.828620 0.064504 0.350456 0.000000 -0.718448 0.695581
0.618620 0.064504 0.350456 0.000000 -0.718448 0.695581
0.828620 0.064504 0.350456 0.000000 -0.727141 0.686488
0.618620 0.064504 0.350456 0.000000 -0.727141 0.686488
0.828620 0.063319 0.349200 0.000000 -0.727141 0.686488
0.618620 0.063319 0.349200 0.000000 -0.727141 0.686488
0.828620 0.063319 0.349200 0.000000 -0.735573 0.677445
0.618620 0.063319 0.349200 0.000000 -0.735573 0.677445
0.828620 0.062143 0.347924 0.000000 -0.735573 0.677445
0.828620 0.062143 0.347924 0.000000 -0.735575 0.677443
0.618620 0.063319 0.349200 0.000000 -0.735575 0.677443
0.618620 0.062143 0.347924 0.000000 -0.735575 0.677443
0.828620 0.062143 0.347924 0.000000 -0.746532 0.665349
0.618620 0.062143 0.347924 0.000000 -0.746532 0.665349
0.828620 0.059937 0.345448 0.000000 -0.746532 0.665349
0.618620 0.059937 0.345448 0.000000 -0.746532 0.665349
0.828620 0.059937 0.345448 0.000000 -0.756581 0.653900
0.618620 0.059937 0.345448 0.000000 -0.756581 0.653900
0.828620 0.058664 0.343976 0.000000 -0.756581 0.653900
0.618620 0.058664 0.343976 0.000000 -0.756581 0.653900
0.828620 0.058664 0.343976 0.000000 -0.763094 0.646288
0.618620 0.058664 0.343976 0.000000 -0.763094 0.646288
0.828620 0.057402 0.342486 0.000000 -0.763094 0.646288
0.618620 0.057402 0.342486 0.000000 -0.763094 0.646288
0.828620 0.057402 0.342486 0.000000 -0.771551 0.636167
0.618620 0.057402 0.342486 0.000000 -0.771551 0.636167
0.828620 0.054906 0.339458 0.000000 -0.771551 0.636167
0.618620 0.054906 0.339458 0.000000 -0.771551 0.636167
0.828620 0.054906 0.339458 0.000000 -0.780767 0.624822
0.618620 0.054906 0.339458 0.000000 -0.780767 0.624822
0.828620 0.052442 0.336380 0.000000 -0.780767 0.624822
0.618620 0.052442 0.336380 0.000000 -0.780767 0.624822
0.828620 0.052442 0.336380 0.000000 -0.787747 0.615999
0.618620 0.052442 0.336380 0.000000 -0.787747 0.615999
0.828620 0.050007 0.333265 0.000000 -0.787747 0.615999
0.618620 0.050007 0.333265 0.000000 -0.787747 0.615999
0.828620 0.050007 0.333265 0.000000 -0.792023 0.610491
0.618620 0.050007 0.333265 0.000000 -0.792023 0.610491
0.828620 0.048397 0.331176 0.000000 -0.792023 0.610491
0.618620 0.048397 0.331176 0.000000 -0.792023 0.610491
0.828620 0.048397 0.331176 0.000000 -0.795210 0.606334
0.618620 0.048397 0.331176 0.000000 -0.795210 0.606334
0.828620 0.045200 0.326984 0.000000 -0.795210 0.606334
0.618620 0.045200 0.326984 0.000000 -0.795210 0.606334
0.828620 0.045200 0.326984 0.000000 -0.796346 0.604842
0.618620 0.045200 0.326984 0.000000 -0.796346 0.604842
0.828620 0.040441 0.320718 0.000000 -0.796346 0.604842
0.618620 0.040441 0.320718 0.000000 -0.796346 0.604842
0.828620 0.040441 0.320718 0.000000 -0.793274 0.608865
0.618620 0.040441 0.320718 0.000000 -0.793274 0.608865
0.828620 0.038064 0.317620 0.000000 -0.793274 0.608865
0.618620 0.038064 0.317620 0.000000 -0.793274 0.608865
0.828620 0.038064 0.317620 0.000000 -0.789117 0.614242
0.618620 0.038064 0.317620 0.000000 -0.789117 0.614242
0.828620 0.036112 0.315113 0.000000 -0.789117 0.614242
0.618620 0.036112 0.315113 0.000000 -0.789117 0.614242
0.828620 0.036112 0.315113 0.000000 -0.783816 0.620994
0.618620 0.036112 0.315113 0.000000 -0.783816 0.620994
0.828620 0.034152 0.312639 0.000000 -0.783816 0.620994
0.618620 0.034151 0.312639 0.000000 -0.783816 0.620994
0.828620 0.034152 0.312639 0.000000 -0.777554 0.628816
0.618620 0.034151 0.312639 0.000000 -0.777554 0.628816
0.828620 0.032491 0.310585 0.000000 -0.777554 0.628816
0.618620 0.032491 0.310585 0.000000 -0.777554 0.628816
0.828620 0.032491 0.310585 0.000000 -0.770522 0.637414
0.618620 0.032491 0.310585 0.000000 -0.770522 0.637414
0.828620 0.030819 0.308565 0.000000 -0.770522 0.637414
0.618620 0.030819 0.308565 0.000000 -0.770522 0.637414
0.828620 0.030819 0.308565 0.000000 -0.761693 0.647938
0.618620 0.030819 0.308565 0.000000 -0.761693 0.647938
0.828620 0.028975 0.306397 0.000000 -0.761693 0.647938
0.618620 0.028975 0.306397 0.000000 -0.761693 0.647938
0.828620 0.028975 0.306397 0.000000 -0.750700 0.660643
0.618620 0.028975 0.306397 0.000000 -0.750700 0.660643
0.828620 0.027114 0.304281 0.000000 -0.750700 0.660643
0.618620 0.027114 0.304281 0.000000 -0.750700 0.660643
0.828620 0.027114 0.304281 0.000000 -0.737670 0.675162
0.618620 0.027114 0.304281 0.000000 -0.737670 0.675162
0.828620 0.025231 0.302225 0.000000 -0.737670 0.675162
0.618620 0.025231 0.302225 0.000000 -0.737670 0.675162
0.828620 0.025231 0.302225 0.000000 -0.722322 0.691556
0.618620 0.025231 0.302225 0.000000 -0.722322 0.691556
0.828620 0.023327 0.300236 0.000000 -0.722322 0.691556
0.618620 0.023327 0.300236 0.000000 -0.722322 0.691556
0.828620 0.023327 0.300236 0.000000 -0.704338 0.709864
0.618620 0.023327 0.300236 0.000000 -0.704338 0.709864
0.828620 0.021398 0.298322 0.000000 -0.704338 0.709864
0.618620 0.021398 0.298322 0.000000 -0.704338 0.709864
0.828620 0.021398 0.298322 0.000000 -0.688955 0.724804
0.618620 0.021398 0.298322 0.000000 -0.688955 0.724804
0.828620 0.020424 0.297396 0.000000 -0.688955 0.724804
0.618620 0.020424 0.297396 0.000000 -0.688955 0.724804
0.828620 0.020424 0.297396 0.000000 -0.677641 0.735393
0.618620 0.020424 0.297396 0.000000 -0.677641 0.735393
0.828620 0.019443 0.296492 0.000000 -0.677641 0.735393
0.618620 0.019443 0.296492 0.000000 -0.677641 0.735393
0.828620 0.019443 0.296492 0.000000 -0.660799 0.750563
0.618620 0.019443 0.296492 0.000000 -0.660799 0.750563
0.828620 0.017745 0.294997 0.000000 -0.660799 0.750563
0.618620 0.017745 0.294997 0.000000 -0.660799 0.750563
0.828620 0.017745 0.294997 0.000000 -0.637014 0.770852
0.618620 0.017745 0.294997 0.000000 -0.637014 0.770852
0.828620 0.016025 0.293576 0.000000 -0.637014 0.770852
0.618620 0.016025 0.293576 0.000000 -0.637014 0.770852
0.828620 0.016025 0.293576 0.000000 -0.617165 0.786834
0.618620 0.016025 0.293576 0.000000 -0.617165 0.786834
0.828620 0.015157 0.292895 0.000000 -0.617165 0.786834
0.828620 0.015157 0.292895 0.000000 -0.617164 0.786835
0.618620 0.016025 0.293576 0.000000 -0.617164 0.786835
0.618620 0.015156 0.292895 0.000000 -0.617164 0.786835
0.828620 0.015157 0.292895 0.000000 -0.602855 0.797851
0.618620 0.015156 0.292895 0.000000 -0.602855 0.797851
0.828620 0.014282 0.292234 0.000000 -0.602855 0.797851
0.618620 0.014282 0.292234 0.000000 -0.602855 0.797851
0.828620 0.014282 0.292234 0.000000 -0.582824 0.812599
0.618620 0.014282 0.292234 0.000000 -0.582824 0.812599
0.828620 0.012870 0.291221 0.000000 -0.582824 0.812599
0.618620 0.012870 0.291221 0.000000 -0.582824 0.812599
0.828620 0.012870 0.291221 0.000000 -0.556007 0.831177
0.618620 0.012870 0.291221 0.000000 -0.556007 0.831177
0.828620 0.011443 0.290266 0.000000 -0.556007 0.831177
0.618620 0.011443 0.290266 0.000000 -0.556007 0.831177
0.828620 0.011443 0.290266 0.000000 -0.526566 0.850134
0.618620 0.011443 0.290266 0.000000 -0.526566 0.850134
0.828620 0.009998 0.289372 0.000000 -0.526566 0.850134
0.618620 0.009998 0.289372 0.000000 -0.526566 0.850134
0.828620 0.009998 0.289372 0.000000 -0.494356 0.869260
0.618620 0.009998 0.289372 0.000000 -0.494356 0.869260
0.828620 0.008536 0.288540 0.000000 -0.494356 0.869260
0.618620 0.008536 0.288540 0.000000 -0.494356 0.869260
0.828620 0.008536 0.288540 0.000000 -0.459221 0.888322
0.618620 0.008536 0.288540 0.000000 -0.459221 0.888322
0.828620 0.007057 0.287775 0.000000 -0.459221 0.888322
0.618620 0.007056 0.287775 0.000000 -0.459221 0.888322
0.828620 0.007057 0.287775 0.000000 -0.420474 0.907305
0.618620 0.007056 0.287775 0.000000 -0.420474 0.907305
0.828620 0.005511 0.287059 0.000000 -0.420474 0.907305
0.618620 0.005511 0.287059 0.000000 -0.420474 0.907305
0.828620 0.005511 0.287059 0.000000 -0.388814 0.921316
0.618620 0.005511 0.287059 0.000000 -0.388814 0.921316
0.828620 0.004724 0.286727 0.000000 -0.388814 0.921316
0.618620 0.004724 0.286727 0.000000 -0.388814 0.921316
0.828620 0.004724 0.286727 0.000000 -0.366537 0.930404
0.618620 0.004724 0.286727 0.000000 -0.366537 0.930404
0.828620 0.003930 0.286414 0.000000 -0.366537 0.930404
0.618620 0.003930 0.286414 0.000000 -0.366537 0.930404
0.828620 0.003930 0.286414 0.000000 -0.343514 0.939148
0.618620 0.003930 0.286414 0.000000 -0.343514 0.939148
0.828620 0.003140 0.286125 0.000000 -0.343514 0.939148
0.618620 0.003140 0.286125 0.000000 -0.343514 0.939148
0.828620 0.003140 0.286125 0.000000 -0.319844 0.947470
0.618620 0.003140 0.286125 0.000000 -0.319844 0.947470
0.828620 0.002344 0.285856 0.000000 -0.319844 0.947470
0.618620 0.002344 0.285856 0.000000 -0.319844 0.947470
0.828620 0.002344 0.285856 0.000000 -0.289044 0.957316
0.618620 0.002344 0.285856 0.000000 -0.289044 0.957316
0.828620 0.001134 0.285491 0.000000 -0.289044 0.957316
0.618620 0.001134 0.285491 0.000000 -0.289044 0.957316
0.828620 0.001134 0.285491 0.000000 -0.250639 0.968081
0.618620 0.001134 0.285491 0.000000 -0.250639 0.968081
0.828620 -0.000087 0.285175 0.000000 -0.250639 0.968081
0.618620 -0.000087 0.285175 0.000000 -0.250639 0.968081
0.828620 -0.000087 0.285175 0.000000 -0.210789 0.977532
0.618620 -0.000087 0.285175 0.000000 -0.210789 0.977532
0.828620 -0.001315 0.284910 0.000000 -0.210789 0.977532
0.618620 -0.001315 0.284910 0.000000 -0.210789 0.977532
0.828620 -0.001315 0.284910 0.000000 -0.169933 0.985456
0.618620 -0.001315 0.284910 0.000000 -0.169933 0.985456
0.828620 -0.002552 0.284697 0.000000 -0.169933 0.985456
0.618620 -0.002552 0.284697 0.000000 -0.169933 0.985456
0.828620 -0.002552 0.284697 0.000000 -0.128296 0.991736
0.618620 -0.002552 0.284697 0.000000 -0.128296 0.991736
0.828620 -0.003870 0.284526 0.000000 -0.128296 0.991736
0.618620 -0.003870 0.284526 0.000000 -0.128296 0.991736
0.828620 -0.003870 0.284526 0.000000 -0.087075 0.996202
0.618620 -0.003870 0.284526 0.000000 -0.087075 0.996202
0.828620 -0.005199 0.284410 0.000000 -0.087075 0.996202
0.618620 -0.005199 0.284410 0.000000 -0.087075 0.996202
0.828620 -0.005199 0.284410 0.000000 -0.047578 0.998868
0.618620 -0.005199 0.284410 0.000000 -0.047578 0.998868
0.828620 -0.006539 0.284346 0.000000 -0.047578 0.998868
0.618620 -0.006540 0.284346 0.000000 -0.047578 0.998868
0.828620 -0.006539 0.284346 0.000000 -0.010019 0.999950
0.618620 -0.006540 0.284346 0.000000 -0.010019 0.999950
0.828620 -0.007890 0.284333 0.000000 -0.010019 0.999950
0.618620 -0.007890 0.284333 0.000000 -0.010019 0.999950
0.828620 -0.007890 0.284333 -0.000000 0.019873 0.999802
0.618620 -0.007890 0.284333 -0.000000 0.019873 0.999802
0.828620 -0.008795 0.284351 -0.000000 0.019873 0.999802
0.618620 -0.008796 0.284351 -0.000000 0.019873 0.999802
0.828620 -0.008795 0.284351 -0.000000 0.042618 0.999091
0.618620 -0.008796 0.284351 -0.000000 0.042618 0.999091
0.828620 -0.009705 0.284390 -0.000000 0.042618 0.999091
0.618620 -0.009705 0.284390 -0.000000 0.042618 0.999091
0.828620 -0.009705 0.284390 -0.000000 0.064557 0.997914
0.618620 -0.009705 0.284390 -0.000000 0.064557 0.997914
0.828620 -0.010619 0.284449 -0.000000 0.064557 0.997914
0.618620 -0.010619 0.284449 -0.000000 0.064557 0.997914
0.828620 -0.010619 0.284449 -0.000000 0.085531 0.996336
0.618620 -0.010619 0.284449 -0.000000 0.085531 0.996336
0.828620 -0.011536 0.284527 -0.000000 0.085531 0.996336
0.618620 -0.011536 0.284527 -0.000000 0.085531 0.996336
0.828620 -0.011536 0.284527 -0.000000 0.106452 0.994318
0.618620 -0.011536 0.284527 -0.000000 0.106452 0.994318
0.828620 -0.012538 0.284635 -0.000000 0.106452 0.994318
0.618620 -0.012538 0.284635 -0.000000 0.106452 0.994318
0.828620 -0.012538 0.284635 -0.000000 0.127175 0.991880
0.618620 -0.012538 0.284635 -0.000000 0.127175 0.991880
0.828620 -0.013543 0.284764 -0.000000 0.127175 0.991880
0.618620 -0.013544 0.284764 -0.000000 0.127175 0.991880
0.828620 -0.013543 0.284764 -0.000000 0.147266 0.989097
0.618620 -0.013544 0.284764 -0.000000 0.147266 0.989097
0.828620 -0.014596 0.284920 -0.000000 0.147266 0.989097
0.618620 -0.014596 0.284920 -0.000000 0.147266 0.989097
0.828620 -0.014596 0.284920 -0.000000 0.166704 0.986007
0.618620 -0.014596 0.284920 -0.000000 0.166704 0.986007
0.828620 -0.015652 0.285099 -0.000000 0.166704 0.986007
0.828620 -0.015652 0.285099 -0.000000 0.166705 0.986007
0.618620 -0.014596 0.284920 -0.000000 0.166705 0.986007
0.618620 -0.015652 0.285099 -0.000000 0.166705 0.986007
0.828620 -0.015652 0.285099 -0.000000 0.193334 0.981133
0.618620 -0.015652 0.285099 -0.000000 0.193334 0.981133
0.828620 -0.017731 0.285509 -0.000000 0.193334 0.981133
0.618620 -0.017731 0.285509 -0.000000 0.193334 0.981133
0.828620 -0.017731 0.285509 -0.000000 0.225250 0.974301
0.618620 -0.017731 0.285509 -0.000000 0.225250 0.974301
0.828620 -0.019822 0.285992 -0.000000 0.225250 0.974301
0.618620 -0.019822 0.285992 -0.000000 0.225250 0.974301
0.828620 -0.019822 0.285992 -0.000000 0.253434 0.967353
0.618620 -0.019822 0.285992 -0.000000 0.253434 0.967353
0.828620 -0.021924 0.286543 -0.000000 0.253434 0.967353
0.618620 -0.021924 0.286543 -0.000000 0.253434 0.967353
0.828620 -0.021924 0.286543 -0.000000 0.278207 0.960521
0.618620 -0.021924 0.286543 -0.000000 0.278207 0.960521
0.828620 -0.024034 0.287154 -0.000000 0.278207 0.960521
0.618620 -0.024034 0.287154 -0.000000 0.278207 0.960521
0.828620 -0.024034 0.287154 -0.000000 0.297011 0.954874
0.618620 -0.024034 0.287154 -0.000000 0.297011 0.954874
0.828620 -0.025556 0.287627 -0.000000 0.297011 0.954874
0.618620 -0.025556 0.287627 -0.000000 0.297011 0.954874
0.828620 -0.025556 0.287627 -0.000000 0.311004 0.950409
0.618620 -0.025556 0.287627 -0.000000 0.311004 0.950409
0.828620 -0.027083 0.288127 -0.000000 0.311004 0.950409
0.618620 -0.027083 0.288127 -0.000000 0.311004 0.950409
0.828620 -0.027083 0.288127 -0.000000 0.324094 0.946025
0.618620 -0.027083 0.288127 -0.000000 0.324094 0.946025
0.828620 -0.028744 0.288696 -0.000000 0.324094 0.946025
0.618620 -0.028744 0.288696 -0.000000 0.324094 0.946025
0.828620 -0.028744 0.288696 -0.000000 0.336166 0.941803
0.618620 -0.028744 0.288696 -0.000000 0.336166 0.941803
0.828620 -0.030410 0.289291 -0.000000 0.336166 0.941803
0.618620 -0.030410 0.289291 -0.000000 0.336166 0.941803
0.828620 -0.030410 0.289291 -0.000000 0.347540 0.937665
0.618620 -0.030410 0.289291 -0.000000 0.347540 0.937665
0.828620 -0.032345 0.290008 -0.000000 0.347540 0.937665
0.618620 -0.032345 0.290008 -0.000000 0.347540 0.937665
0.828620 -0.032345 0.290008 -0.000000 0.357920 0.933752
0.618620 -0.032345 0.290008 -0.000000 0.357920 0.933752
0.828620 -0.034285 0.290751 -0.000000 0.357920 0.933752
0.618620 -0.034285 0.290751 -0.000000 0.357920 0.933752
0.828620 -0.034285 0.290751 -0.000000 0.368383 0.929674
0.618620 -0.034285 0.290751 -0.000000 0.368383 0.929674
0.828620 -0.037200 0.291906 -0.000000 0.368383 0.929674
0.618620 -0.037200 0.291906 -0.000000 0.368383 0.929674
0.828620 -0.037200 0.291906 -0.000000 0.377660 0.925944
0.618620 -0.037200 0.291906 -0.000000 0.377660 0.925944
0.828620 -0.040127 0.293100 -0.000000 0.377660 0.925944
0.618620 -0.040127 0.293100 -0.000000 0.377660 0.925944
0.828620 -0.040127 0.293100 -0.000000 0.384464 0.923140
0.618620 -0.040127 0.293100 -0.000000 0.384464 0.923140
0.828620 -0.045039 0.295146 -0.000000 0.384464 0.923140
0.618620 -0.045039 0.295146 -0.000000 0.384464 0.923140
0.828620 -0.045039 0.295146 -0.000000 0.385199 0.922833
0.618620 -0.045039 0.295146 -0.000000 0.385199 0.922833
0.828620 -0.049982 0.297209 -0.000000 0.385199 0.922833
0.618620 -0.049982 0.297209 -0.000000 0.385199 0.922833
0.828620 -0.049982 0.297209 -0.000000 0.378001 0.925805
0.618620 -0.049982 0.297209 -0.000000 0.378001 0.925805
0.828620 -0.054315 0.298978 -0.000000 0.378001 0.925805
0.618620 -0.054315 0.298978 -0.000000 0.378001 0.925805
0.828620 -0.054315 0.298978 -0.000000 0.368492 0.929631
0.618620 -0.054315 0.298978 -0.000000 0.368492 0.929631
0.828620 -0.056487 0.299839 -0.000000 0.368492 0.929631
0.618620 -0.056487 0.299839 -0.000000 0.368492 0.929631
0.828620 -0.056487 0.299839 -0.000000 0.358963 0.933352
0.618620 -0.056487 0.299839 -0.000000 0.358963 0.933352
0.828620 -0.059042 0.300822 -0.000000 0.358963 0.933352
0.618620 -0.059042 0.300822 -0.000000 0.358963 0.933352
0.828620 -0.059042 0.300822 -0.000000 0.346242 0.938145
0.618620 -0.059042 0.300822 -0.000000 0.346242 0.938145
0.828620 -0.061600 0.301766 -0.000000 0.346242 0.938145
0.618620 -0.061600 0.301766 -0.000000 0.346242 0.938145
0.828620 -0.061600 0.301766 -0.000000 0.329667 0.944097
0.618620 -0.061600 0.301766 -0.000000 0.329667 0.944097
0.828620 -0.064516 0.302784 -0.000000 0.329667 0.944097
0.828620 -0.064516 0.302784 -0.000000 0.329666 0.944098
0.618620 -0.061600 0.301766 -0.000000 0.329666 0.944098
0.618620 -0.064516 0.302784 -0.000000 0.329666 0.944098
0.828620 -0.064516 0.302784 -0.000000 0.314275 0.949332
0.618620 -0.064516 0.302784 -0.000000 0.314275 0.949332
0.828620 -0.065975 0.303267 -0.000000 0.314275 0.949332
0.618620 -0.065975 0.303267 -0.000000 0.314275 0.949332
0.828620 -0.065975 0.303267 -0.000000 0.302713 0.953082
0.618620 -0.065975 0.303267 -0.000000 0.302713 0.953082
0.828620 -0.067434 0.303731 -0.000000 0.302713 0.953082
0.618620 -0.067434 0.303731 -0.000000 0.302713 0.953082
0.828620 -0.067434 0.303731 -0.000000 0.287953 0.957644
0.618620 -0.067434 0.303731 -0.000000 0.287953 0.957644
0.828620 -0.069380 0.304316 -0.000000 0.287953 0.957644
0.618620 -0.069380 0.304316 -0.000000 0.287953 0.957644
0.828620 -0.069380 0.304316 -0.000000 0.269340 0.963045
0.618620 -0.069380 0.304316 -0.000000 0.269340 0.963045
0.828620 -0.071326 0.304860 -0.000000 0.269340 0.963045
0.618620 -0.071327 0.304860 -0.000000 0.269340 0.963045
0.828620 -0.071326 0.304860 -0.000000 0.248786 0.968559
0.618620 -0.071327 0.304860 -0.000000 0.248786 0.968559
0.828620 -0.073273 0.305360 -0.000000 0.248786 0.968559
0.618620 -0.073273 0.305360 -0.000000 0.248786 0.968559
0.828620 -0.073273 0.305360 -0.000000 0.230374 0.973102
0.618620 -0.073273 0.305360 -0.000000 0.230374 0.973102
0.828620 -0.074524 0.305656 -0.000000 0.230374 0.973102
0.618620 -0.074524 0.305656 -0.000000 0.230374 0.973102
0.828620 -0.074524 0.305656 -0.000000 0.214952 0.976625
0.618620 -0.074524 0.305656 -0.000000 0.214952 0.976625
0.828620 -0.075775 0.305932 -0.000000 0.214952 0.976625
0.618620 -0.075775 0.305932 -0.000000 0.214952 0.976625
0.828620 -0.075775 0.305932 -0.000000 0.195741 0.980656
0.618620 -0.075775 0.305932 -0.000000 0.195741 0.980656
0.828620 -0.077443 0.306265 -0.000000 0.195741 0.980656
0.618620 -0.077443 0.306265 -0.000000 0.195741 0.980656
0.828620 -0.077443 0.306265 -0.000000 0.172245 0.985054
0.618620 -0.077443 0.306265 -0.000000 0.172245 0.985054
0.828620 -0.079110 0.306556 -0.000000 0.172245 0.985054
0.618620 -0.079110 0.306556 -0.000000 0.172245 0.985054
0.828620 -0.079110 0.306556 -0.000000 0.147009 0.989135
0.618620 -0.079110 0.306556 -0.000000 0.147009 0.989135
0.828620 -0.080777 0.306804 -0.000000 0.147009 0.989135
0.618620 -0.080777 0.306804 -0.000000 0.147009 0.989135
0.828620 -0.080777 0.306804 -0.000000 0.118203 0.992990
0.618620 -0.080777 0.306804 -0.000000 0.118203 0.992990
0.828620 -0.082650 0.307027 -0.000000 0.118203 0.992990
0.618620 -0.082650 0.307027 -0.000000 0.118203 0.992990
0.828620 -0.082650 0.307027 -0.000000 0.085480 0.996340
0.618620 -0.082650 0.307027 -0.000000 0.085480 0.996340
0.828620 -0.084520 0.307187 -0.000000 0.085480 0.996340
0.618620 -0.084521 0.307187 -0.000000 0.085480 0.996340
0.828620 -0.084520 0.307187 -0.000000 0.050460 0.998726
0.618620 -0.084521 0.307187 -0.000000 0.050460 0.998726
0.828620 -0.086387 0.307282 -0.000000 0.050460 0.998726
0.618620 -0.086387 0.307282 -0.000000 0.050460 0.998726
0.828620 -0.086387 0.307282 -0.000000 0.013139 0.999914
0.618620 -0.086387 0.307282 -0.000000 0.013139 0.999914
0.828620 -0.088249 0.307306 -0.000000 0.013139 0.999914
0.618620 -0.088250 0.307306 -0.000000 0.013139 0.999914
0.828620 -0.088249 0.307306 0.000000 -0.016666 0.999861
0.618620 -0.088250 0.307306 0.000000 -0.016666 0.999861
0.828620 -0.089219 0.307290 0.000000 -0.016666 0.999861
0.618620 -0.089219 0.307290 0.000000 -0.016666 0.999861
0.828620 -0.089219 0.307290 0.000000 -0.037871 0.999283
0.618620 -0.089219 0.307290 0.000000 -0.037871 0.999283
0.828620 -0.090186 0.307253 0.000000 -0.037871 0.999283
0.618620 -0.090186 0.307253 0.000000 -0.037871 0.999283
0.828620 -0.090186 0.307253 0.000000 -0.059439 0.998232
0.618620 -0.090186 0.307253 0.000000 -0.059439 0.998232
0.828620 -0.091139 0.307197 0.000000 -0.059439 0.998232
0.618620 -0.091139 0.307197 0.000000 -0.059439 0.998232
0.828620 -0.091139 0.307197 0.000000 -0.081465 0.996676
0.618620 -0.091139 0.307197 0.000000 -0.081465 0.996676
0.828620 -0.092091 0.307119 0.000000 -0.081465 0.996676
0.618620 -0.092091 0.307119 0.000000 -0.081465 0.996676
0.828620 -0.092091 0.307119 0.000000 -0.107836 0.994169
0.618620 -0.092091 0.307119 0.000000 -0.107836 0.994169
0.828620 -0.093363 0.306981 0.000000 -0.107836 0.994169
0.618620 -0.093363 0.306981 0.000000 -0.107836 0.994169
0.828620 -0.093363 0.306981 0.000000 -0.138723 0.990331
0.618620 -0.093363 0.306981 0.000000 -0.138723 0.990331
0.828620 -0.094631 0.306803 0.000000 -0.138723 0.990331
0.618620 -0.094631 0.306803 0.000000 -0.138723 0.990331
0.828620 -0.094631 0.306803 0.000000 -0.170320 0.985389
0.618620 -0.094631 0.306803 0.000000 -0.170320 0.985389
0.828620 -0.095893 0.306585 0.000000 -0.170320 0.985389
0.618620 -0.095893 0.306585 0.000000 -0.170320 0.985389
0.828620 -0.095893 0.306585 0.000000 -0.206544 0.978437
0.618620 -0.095893 0.306585 0.000000 -0.206544 0.978437
0.828620 -0.097462 0.306254 0.000000 -0.206544 0.978437
0.618620 -0.097463 0.306254 0.000000 -0.206544 0.978437
0.828620 -0.097462 0.306254 0.000000 -0.247354 0.968925
0.618620 -0.097463 0.306254 0.000000 -0.247354 0.968925
0.828620 -0.099022 0.305856 0.000000 -0.247354 0.968925
0.618620 -0.099022 0.305856 0.000000 -0.247354 0.968925
0.828620 -0.099022 0.305856 0.000000 -0.288511 0.957477
0.618620 -0.099022 0.305856 0.000000 -0.288511 0.957477
0.828620 -0.100570 0.305389 0.000000 -0.288511 0.957477
0.618620 -0.100570 0.305389 0.000000 -0.288511 0.957477
0.828620 -0.100570 0.305389 0.000000 -0.329676 0.944094
0.618620 -0.100570 0.305389 0.000000 -0.329676 0.944094
0.828620 -0.102107 0.304853 0.000000 -0.329676 0.944094
0.618620 -0.102107 0.304853 0.000000 -0.329676 0.944094
0.828620 -0.102107 0.304853 0.000000 -0.370632 0.928780
0.618620 -0.102107 0.304853 0.000000 -0.370632 0.928780
0.828620 -0.103630 0.304245 0.000000 -0.370632 0.928780
0.618620 -0.103630 0.304245 0.000000 -0.370632 0.928780
0.828620 -0.103630 0.304245 0.000000 -0.410991 0.911639
0.618620 -0.103630 0.304245 0.000000 -0.410991 0.911639
0.828620 -0.105138 0.303565 0.000000 -0.410991 0.911639
0.618620 -0.105139 0.303565 0.000000 -0.410991 0.911639
0.828620 -0.105138 0.303565 0.000000 -0.450239 0.892908
0.618620 -0.105139 0.303565 0.000000 -0.450239 0.892908
0.828620 -0.106613 0.302821 0.000000 -0.450239 0.892908
0.618620 -0.106613 0.302821 0.000000 -0.450239 0.892908
0.828620 -0.106613 0.302821 0.000000 -0.488080 0.872799
0.618620 -0.106613 0.302821 0.000000 -0.488080 0.872799
0.828620 -0.108072 0.302005 0.000000 -0.488080 0.872799
0.618620 -0.108072 0.302005 0.000000 -0.488080 0.872799
0.828620 -0.108072 0.302005 0.000000 -0.524603 0.851347
0.618620 -0.108072 0.302005 0.000000 -0.524603 0.851347
0.828620 -0.109513 0.301117 0.000000 -0.524603 0.851347
0.618620 -0.109514 0.301117 0.000000 -0.524603 0.851347
0.828620 -0.109513 0.301117 0.000000 -0.559572 0.828781
0.618620 -0.109514 0.301117 0.000000 -0.559572 0.828781
0.828620 -0.110937 0.300156 0.000000 -0.559572 0.828781
0.618620 -0.110937 0.300156 0.000000 -0.559572 0.828781
0.828620 -0.110937 0.300156 0.000000 -0.592789 0.805358
0.618620 -0.110937 0.300156 0.000000 -0.592789 0.805358
0.828620 -0.112341 0.299122 0.000000 -0.592789 0.805358
0.618620 -0.112341 0.299122 0.000000 -0.592789 0.805358
0.828620 -0.112341 0.299122 0.000000 -0.624260 0.781217
0.618620 -0.112341 0.299122 0.000000 -0.624260 0.781217
0.828620 -0.113725 0.298016 0.000000 -0.624260 0.781217
0.618620 -0.113725 0.298016 0.000000 -0.624260 0.781217
0.828620 -0.113725 0.298016 0.000000 -0.653790 0.756676
0.618620 -0.113725 0.298016 0.000000 -0.653790 0.756676
0.828620 -0.115088 0.296839 0.000000 -0.653790 0.756676
0.618620 -0.115088 0.296839 0.000000 -0.653790 0.756676
0.828620 -0.115088 0.296839 0.000000 -0.681446 0.731869
0.618620 -0.115088 0.296839 0.000000 -0.681446 0.731869
0.828620 -0.116430 0.295590 0.000000 -0.681446 0.731869
0.618620 -0.116430 0.295590 0.000000 -0.681446 0.731869
0.828620 -0.116430 0.295590 0.000000 -0.704238 0.709964
0.618620 -0.116430 0.295590 0.000000 -0.704238 0.709964
0.828620 -0.117437 0.294591 0.000000 -0.704238 0.709964
0.618620 -0.117437 0.294591 0.000000 -0.704238 0.709964
0.828620 -0.117437 0.294591 0.000000 -0.722688 0.691174
0.618620 -0.117437 0.294591 0.000000 -0.722688 0.691174
0.828620 -0.118431 0.293551 0.000000 -0.722688 0.691174
0.618620 -0.118431 0.293551 0.000000 -0.722688 0.691174
0.828620 -0.118431 0.293551 0.000000 -0.740153 0.672439
0.618620 -0.118431 0.293551 0.000000 -0.740153 0.672439
0.828620 -0.119411 0.292472 0.000000 -0.740153 0.672439
0.618620 -0.119411 0.292472 0.000000 -0.740153 0.672439
0.828620 -0.119411 0.292472 0.000000 -0.754570 0.656220
0.618620 -0.119411 0.292472 0.000000 -0.754570 0.656220
0.828620 -0.120138 0.291637 0.000000 -0.754570 0.656220
0.618620 -0.120138 0.291637 0.000000 -0.754570 0.656220
0.828620 -0.120138 0.291637 0.000000 -0.766299 0.642484
0.618620 -0.120138 0.291637 0.000000 -0.766299 0.642484
0.828620 -0.120856 0.290780 0.000000 -0.766299 0.642484
0.618620 -0.120856 0.290780 0.000000 -0.766299 0.642484
0.828620 -0.120856 0.290780 0.000000 -0.782869 0.622187
0.618620 -0.120856 0.290780 0.000000 -0.782869 0.622187
0.828620 -0.122270 0.289001 0.000000 -0.782869 0.622187
0.618620 -0.122270 0.289001 0.000000 -0.782869 0.622187
0.828620 -0.122270 0.289001 0.000000 -0.803151 0.595776
0.618620 -0.122270 0.289001 0.000000 -0.803151 0.595776
0.828620 -0.123651 0.287139 0.000000 -0.803151 0.595776
0.618620 -0.123651 0.287139 0.000000 -0.803151 0.595776
0.828620 -0.123651 0.287139 0.000000 -0.821489 0.570224
0.618620 -0.123651 0.287139 0.000000 -0.821489 0.570224
0.828620 -0.125000 0.285196 0.000000 -0.821489 0.570224
0.828620 -0.125000 0.285196 0.000000 -0.821491 0.570222
0.618620 -0.123651 0.287139 0.000000 -0.821491 0.570222
0.618620 -0.125000 0.285196 0.000000 -0.821491 0.570222
3 0 1 2
3 3 4 5
3 6 7 8
3 8 7 9
3 10 11 12
3 12 11 13
3 14 15 16
3 16 15 17
3 18 19 20
3 20 19 21
3 22 23 24
3 24 23 25
3 26 27 28
3 28 27 29
3 30 31 32
3 32 31 33
3 34 35 36
3 36 35 37
3 38 39 40
3 40 39 41
3 42 43 44
3 44 43 45
3 46 47 48
3 48 47 49
3 50 51 52
3 52 51 53
3 54 55 56
3 56 55 57
3 58 59 60
3 60 59 61
3 62 63 64
3 64 63 65
3 66 67 68
3 68 67 69
3 70 71 72
3 72 71 73
3 74 75 76
3 76 75 77
3 78 79 80
3 80 79 81
3 82 83 84
3 84 83 85
3 86 87 88
3 89 90 91
3 92 93 94
3 94 93 95
3 96 97 98
3 98 97 99
3 100 101 102
3 102 101 103
3 104 105 106
3 106 105 107
3 108 109 110
3 110 109 111
3 112 113 114
3 114 113 115
3 116 117 118
3 118 117 119
3 120 121 122
3 122 121 123
3 124 125 126
3 126 125 127
3 128 129 130
3 130 129 131
3 132 133 134
3 134 133 135
3 136 137 138
3 138 137 139
3 140 141 142
3 142 141 143
3 144 145 146
3 146 145 147
3 148 149 150
3 150 149 151
3 152 153 154
3 154 153 155
3 156 157 158
3 158 157 159
3 160 161 162
3 162 161 163
3 164 165 166
3 166 165 167
3 168 169 170
3 170 169 171
3 172 173 174
3 175 176 177
3 178 179 180
3 180 179 181
3 182 183 184
3 184 183 185
3 186 187 188
3 188 187 189
3 190 191 192
3 192 191 193
3 194 195 196
3 196 195 197
3 198 199 200
3 200 199 201
3 202 203 204
3 204 203 205
3 206 207 208
3 208 207 209
3 210 211 212
3 212 211 213
3 214 215 216
3 216 215 217
3 218 219 220
3 220 219 221
3 222 223 224
3 224 223 225
3 226 227 228
3 228 227 229
3 230 231 232
3 232 231 233
3 234 235 236
3 236 235 237
3 238 239 240
3 240 239 241
3 242 243 244
3 244 243 245
3 246 247 248
3 248 247 249
3 250 251 252
3 252 251 253
3 254 255 256
3 256 255 257
3 258 259 260
3 260 259 261
3 262 263 264
3 264 263 265
3 266 267 268
3 268 267 269
3 270 271 272
3 273 274 275
3 276 277 278
3 278 277 279
3 280 281 282
3 282 281 283
3 284 285 286
3 286 285 287
3 288 289 290
3 290 289 291
3 292 293 294
3 294 293 295
3 296 297 298
3 298 297 299
3 300 301 302
3 302 301 303
3 304 305 306
3 306 305 307
3 308 309 310
3 310 309 311
3 312 313 314
3 314 313 315
3 316 317 318
3 318 317 319
3 320 321 322
3 322 321 323
3 324 325 326
3 326 325 327
3 328 329 330
3 330 329 331
3 332 333 334
3 334 333 335
3 336 337 338
3 338 337 339
3 340 341 342
3 342 341 343
3 344 345 346
3 346 345 347
3 348 349 350
3 350 349 351
3 352 353 354
3 354 353 355
3 356 357 358
3 358 357 359
3 360 361 362
3 362 361 363
3 364 365 366
3 366 365 367
3 368 369 370
3 370 369 371
3 372 373 374
3 374 373 375
3 376 377 378
3 378 377 379
3 380 381 382
3 383 384 385
3 386 387 388
3 388 387 389
3 390 391 392
3 392 391 393
3 394 395 396
3 396 395 397
3 398 399 400
3 400 399 401
3 402 403 404
3 404 403 405
3 406 407 408
3 408 407 409
3 410 411 412
3 412 411 413
3 414 415 416
3 416 415 417
3 418 419 420
3 420 419 421
3 422 423 424
3 424 423 425
3 426 427 428
3 428 427 429
3 430 431 432
3 432 431 433
3 434 435 436
3 436 435 437
3 438 439 440
3 440 439 441
3 442 443 444
3 444 443 445
3 446 447 448
3 448 447 449
3 450 451 452
3 452 451 453
3 454 455 456
3 456 455 457
3 458 459 460
3 461 462 463
3 464 465 466
3 466 465 467
3 468 469 470
3 470 469 471
3 472 473 474
3 474 473 475
3 476 477 478
3 478 477 479
3 480 481 482
3 482 481 483
3 484 485 486
3 486 485 487
3 488 489 490
3 490 489 491
3 492 493 494
3 494 493 495
3 496 497 498
3 498 497 499
3 500 501 502
3 502 501 503
3 504 505 506
3 506 505 507
3 508 509 510
3 510 509 511
3 512 513 514
3 514 513 515
3 516 517 518
3 518 517 519
3 520 521 522
3 522 521 523
3 524 525 526
3 526 525 527
3 528 529 530
3 530 529 531
3 532 533 534
3 534 533 535
3 536 537 538
3 538 537 539
3 540 541 542
3 542 541 543
3 544 545 546
3 546 545 547
3 548 549 550
3 550 549 551
3 552 553 554
3 554 553 555
3 556 557 558
3 558 557 559
3 560 561 562
3 562 561 563
3 564 565 566
3 566 565 567
3 568 569 570
3 570 569 571
3 572 573 574
3 574 573 575
3 576 577 578
3 578 577 579
3 580 581 582
3 582 581 583
3 584 585 586
3 586 585 587
3 588 589 590
3 590 589 591
3 592 593 594
3 594 593 595
3 596 597 598
3 598 597 599
3 600 601 602
3 602 601 603
3 604 605 606
3 606 605 607
3 608 609 610
3 610 609 611
3 612 613 614
3 614 613 615
3 616 617 618
3 618 617 619
3 620 621 622
3 622 621 623
3 624 625 626
3 626 625 627
3 628 629 630
3 630 629 631
3 632 633 634
3 635 636 637
