ply
format ascii 1.0
comment Created by Blender 2.82 (sub 7) - www.blender.org, source file: 'pieza_surf.blend'
element vertex 722
property float x
property float y
property float z
property float nx
property float ny
property float nz
element face 312
property list uchar uint vertex_indices
end_header
0.798620 -0.105000 0.365196 0.425975 0.000000 0.904735
0.798620 0.105000 0.365196 0.425975 0.000000 0.904735
0.796603 -0.105000 0.366145 0.425975 0.000000 0.904735
0.796603 -0.105000 0.366145 0.425964 0.000000 0.904740
0.798620 0.105000 0.365196 0.425964 0.000000 0.904740
0.796603 0.105000 0.366145 0.425964 0.000000 0.904740
0.796603 -0.105000 0.366145 0.394896 0.000000 0.918726
0.796603 0.105000 0.366145 0.394896 0.000000 0.918726
0.794594 -0.105000 0.367009 0.394896 0.000000 0.918726
0.794594 -0.105000 0.367009 0.394906 0.000000 0.918721
0.796603 0.105000 0.366145 0.394906 0.000000 0.918721
0.794594 0.105000 0.367009 0.394906 0.000000 0.918721
0.794594 -0.105000 0.367009 0.361765 0.000000 0.932269
0.794594 0.105000 0.367009 0.361765 0.000000 0.932269
0.792595 -0.105000 0.367785 0.361765 0.000000 0.932269
0.792595 0.105000 0.367785 0.361765 0.000000 0.932269
0.792595 -0.105000 0.367785 0.335584 0.000000 0.942010
0.792595 0.105000 0.367785 0.335584 0.000000 0.942010
0.791596 -0.105000 0.368140 0.335584 0.000000 0.942010
0.791596 0.105000 0.368140 0.335584 0.000000 0.942010
0.791596 -0.105000 0.368140 0.317403 0.000000 0.948291
0.791596 0.105000 0.368140 0.317403 0.000000 0.948291
0.790601 -0.105000 0.368473 0.317403 0.000000 0.948291
0.790601 0.105000 0.368473 0.317403 0.000000 0.948291
0.790601 -0.105000 0.368473 0.298780 0.000000 0.954322
0.790601 0.105000 0.368473 0.298780 0.000000 0.954322
0.789613 -0.105000 0.368783 0.298780 0.000000 0.954322
0.789613 -0.105000 0.368783 0.298763 0.000000 0.954327
0.790601 0.105000 0.368473 0.298763 0.000000 0.954327
0.789613 0.105000 0.368783 0.298763 0.000000 0.954327
0.789613 -0.105000 0.368783 0.279757 0.000000 0.960071
0.789613 0.105000 0.368783 0.279757 0.000000 0.960071
0.788629 -0.105000 0.369070 0.279757 0.000000 0.960071
0.788629 -0.105000 0.369070 0.279772 0.000000 0.960066
0.789613 0.105000 0.368783 0.279772 0.000000 0.960066
0.788629 0.105000 0.369070 0.279772 0.000000 0.960066
0.788629 -0.105000 0.369070 0.253481 0.000000 0.967340
0.788629 0.105000 0.369070 0.253481 0.000000 0.967340
0.786991 -0.105000 0.369499 0.253481 0.000000 0.967340
0.786991 0.105000 0.369499 0.253481 0.000000 0.967340
0.786991 -0.105000 0.369499 0.219500 0.000000 0.975612
0.786991 0.105000 0.369499 0.219500 0.000000 0.975612
0.785364 -0.105000 0.369865 0.219500 0.000000 0.975612
0.785364 -0.105000 0.369865 0.219493 0.000000 0.975614
0.786991 0.105000 0.369499 0.219493 0.000000 0.975614
0.785364 0.105000 0.369865 0.219493 0.000000 0.975614
0.785364 -0.105000 0.369865 0.184383 0.000000 0.982855
0.785364 0.105000 0.369865 0.184383 0.000000 0.982855
0.783747 -0.105000 0.370168 0.184383 0.000000 0.982855
0.783747 0.105000 0.370168 0.184383 0.000000 0.982855
0.783747 -0.105000 0.370168 0.148010 0.000000 0.988986
0.783747 0.105000 0.370168 0.148010 0.000000 0.988986
0.782141 -0.105000 0.370409 0.148010 0.000000 0.988986
0.782141 -0.105000 0.370409 0.148015 0.000000 0.988985
0.783747 0.105000 0.370168 0.148015 0.000000 0.988985
0.782141 0.105000 0.370409 0.148015 0.000000 0.988985
0.782141 -0.105000 0.370409 0.110756 0.000000 0.993848
0.782141 0.105000 0.370409 0.110756 0.000000 0.993848
0.780547 -0.105000 0.370586 0.110756 0.000000 0.993848
0.780547 0.105000 0.370586 0.110756 0.000000 0.993848
0.780547 -0.105000 0.370586 0.072690 0.000000 0.997355
0.780547 0.105000 0.370586 0.072690 0.000000 0.997355
0.778967 -0.105000 0.370701 0.072690 0.000000 0.997355
0.778967 0.105000 0.370701 0.072690 0.000000 0.997355
0.778967 -0.105000 0.370701 0.031265 0.000000 0.999511
0.778967 0.105000 0.370701 0.031265 0.000000 0.999511
0.777177 -0.105000 0.370757 0.031265 0.000000 0.999511
0.777177 0.105000 0.370757 0.031265 0.000000 0.999511
0.777177 -0.105000 0.370757 -0.013377 0.000000 0.999910
0.777177 0.105000 0.370757 -0.013377 0.000000 0.999910
0.775406 -0.105000 0.370734 -0.013377 0.000000 0.999910
0.775406 0.105000 0.370734 -0.013377 0.000000 0.999910
0.775406 -0.105000 0.370734 -0.058227 0.000000 0.998303
0.775406 0.105000 0.370734 -0.058227 0.000000 0.998303
0.773654 -0.105000 0.370631 -0.058227 0.000000 0.998303
0.773654 0.105000 0.370631 -0.058227 0.000000 0.998303
0.773654 -0.105000 0.370631 -0.102928 0.000000 0.994689
0.773654 0.105000 0.370631 -0.102928 0.000000 0.994689
0.771922 -0.105000 0.370452 -0.102928 0.000000 0.994689
0.771922 -0.105000 0.370452 -0.102925 -0.000000 0.994689
0.773654 0.105000 0.370631 -0.102925 -0.000000 0.994689
0.771922 0.105000 0.370452 -0.102925 -0.000000 0.994689
0.771922 -0.105000 0.370452 -0.147159 -0.000000 0.989113
0.771922 0.105000 0.370452 -0.147159 -0.000000 0.989113
0.770209 -0.105000 0.370197 -0.147159 -0.000000 0.989113
0.770209 0.105000 0.370197 -0.147159 -0.000000 0.989113
0.770209 -0.105000 0.370197 -0.190614 -0.000000 0.981665
0.770209 0.105000 0.370197 -0.190614 -0.000000 0.981665
0.768517 -0.105000 0.369869 -0.190614 -0.000000 0.981665
0.768517 -0.105000 0.369869 -0.190621 0.000000 0.981664
0.770209 0.105000 0.370197 -0.190621 0.000000 0.981664
0.768517 0.105000 0.369869 -0.190621 0.000000 0.981664
0.768517 -0.105000 0.369869 -0.232953 0.000000 0.972488
0.768517 0.105000 0.369869 -0.232953 0.000000 0.972488
0.766845 -0.105000 0.369468 -0.232953 0.000000 0.972488
0.766845 0.105000 0.369468 -0.232953 0.000000 0.972488
0.766845 -0.105000 0.369468 -0.273976 0.000000 0.961737
0.766845 0.105000 0.369468 -0.273976 0.000000 0.961737
0.765195 -0.105000 0.368998 -0.273976 0.000000 0.961737
0.765195 0.105000 0.368998 -0.273976 0.000000 0.961737
0.765195 -0.105000 0.368998 -0.313444 0.000000 0.949607
0.765195 0.105000 0.368998 -0.313444 0.000000 0.949607
0.763565 -0.105000 0.368460 -0.313444 0.000000 0.949607
0.763565 0.105000 0.368460 -0.313444 0.000000 0.949607
0.763565 -0.105000 0.368460 -0.351700 0.000000 0.936113
0.763565 0.105000 0.368460 -0.351700 0.000000 0.936113
0.761912 -0.105000 0.367839 -0.351700 0.000000 0.936113
0.761912 0.105000 0.367839 -0.351700 0.000000 0.936113
0.761912 -0.105000 0.367839 -0.388618 0.000000 0.921399
0.761912 0.105000 0.367839 -0.388618 0.000000 0.921399
0.760280 -0.105000 0.367151 -0.388618 0.000000 0.921399
0.760280 0.105000 0.367151 -0.388618 0.000000 0.921399
0.760280 -0.105000 0.367151 -0.423401 0.000000 0.905942
0.760280 0.105000 0.367151 -0.423401 0.000000 0.905942
0.758672 -0.105000 0.366399 -0.423401 0.000000 0.905942
0.758672 0.105000 0.366399 -0.423401 0.000000 0.905942
0.758672 -0.105000 0.366399 -0.456124 0.000000 0.889916
0.758672 0.105000 0.366399 -0.456124 0.000000 0.889916
0.757085 -0.105000 0.365586 -0.456124 0.000000 0.889916
0.757085 0.105000 0.365586 -0.456124 0.000000 0.889916
0.757085 -0.105000 0.365586 -0.486804 0.000000 0.873511
0.757085 0.105000 0.365586 -0.486804 0.000000 0.873511
0.755520 -0.105000 0.364714 -0.486804 0.000000 0.873511
0.755520 0.105000 0.364714 -0.486804 0.000000 0.873511
0.755520 -0.105000 0.364714 -0.513054 0.000000 0.858356
0.755520 0.105000 0.364714 -0.513054 0.000000 0.858356
0.754233 -0.105000 0.363944 -0.513054 0.000000 0.858356
0.754233 0.105000 0.363944 -0.513054 0.000000 0.858356
0.754233 -0.105000 0.363944 -0.535471 0.000000 0.844554
0.754233 0.105000 0.363944 -0.535471 0.000000 0.844554
0.752960 -0.105000 0.363138 -0.535471 0.000000 0.844554
0.752960 0.105000 0.363138 -0.535471 0.000000 0.844554
0.752960 -0.105000 0.363138 -0.556502 0.000000 0.830846
0.752960 0.105000 0.363138 -0.556502 0.000000 0.830846
0.751702 -0.105000 0.362295 -0.556502 0.000000 0.830846
0.751702 0.105000 0.362295 -0.556502 0.000000 0.830846
0.751702 -0.105000 0.362295 -0.573837 0.000000 0.818969
0.751702 0.105000 0.362295 -0.573837 0.000000 0.818969
0.750768 -0.105000 0.361640 -0.573837 0.000000 0.818969
0.750768 -0.105000 0.361640 -0.573813 -0.000000 0.818986
0.751702 0.105000 0.362295 -0.573813 -0.000000 0.818986
0.750768 0.105000 0.361640 -0.573813 -0.000000 0.818986
0.750768 -0.105000 0.361640 -0.587899 -0.000000 0.808934
0.750768 0.105000 0.361640 -0.587899 -0.000000 0.808934
0.749842 -0.105000 0.360967 -0.587899 -0.000000 0.808934
0.749842 -0.105000 0.360967 -0.587924 0.000000 0.808916
0.750768 0.105000 0.361640 -0.587924 0.000000 0.808916
0.749842 0.105000 0.360967 -0.587924 0.000000 0.808916
0.749842 -0.105000 0.360967 -0.601634 0.000000 0.798772
0.749842 0.105000 0.360967 -0.601634 0.000000 0.798772
0.748873 -0.105000 0.360237 -0.601634 0.000000 0.798772
0.748873 0.105000 0.360237 -0.601634 0.000000 0.798772
0.748873 -0.105000 0.360237 -0.615021 0.000000 0.788511
0.748873 0.105000 0.360237 -0.615021 0.000000 0.788511
0.747913 -0.105000 0.359488 -0.615021 0.000000 0.788511
0.747913 -0.105000 0.359488 -0.614997 -0.000000 0.788529
0.748873 0.105000 0.360237 -0.614997 -0.000000 0.788529
0.747913 0.105000 0.359488 -0.614997 -0.000000 0.788529
0.747913 -0.105000 0.359488 -0.627968 -0.000000 0.778239
0.747913 0.105000 0.359488 -0.627968 -0.000000 0.778239
0.746915 -0.105000 0.358683 -0.627968 -0.000000 0.778239
0.746915 -0.105000 0.358683 -0.627991 0.000000 0.778221
0.747913 0.105000 0.359488 -0.627991 0.000000 0.778221
0.746915 0.105000 0.358683 -0.627991 0.000000 0.778221
0.746915 -0.105000 0.358683 -0.640498 0.000000 0.767960
0.746915 0.105000 0.358683 -0.640498 0.000000 0.767960
0.745925 -0.105000 0.357858 -0.640498 0.000000 0.767960
0.745925 0.105000 0.357858 -0.640498 0.000000 0.767960
0.745925 -0.105000 0.357858 -0.657664 0.000000 0.753312
0.745925 0.105000 0.357858 -0.657664 0.000000 0.753312
0.744015 -0.105000 0.356190 -0.657664 0.000000 0.753312
0.744015 0.105000 0.356190 -0.657664 0.000000 0.753312
0.744015 -0.105000 0.356190 -0.678229 0.000000 0.734850
0.744015 0.105000 0.356190 -0.678229 0.000000 0.734850
0.742135 -0.105000 0.354455 -0.678229 0.000000 0.734850
0.742135 0.105000 0.354455 -0.678229 0.000000 0.734850
0.742135 -0.105000 0.354455 -0.696493 0.000000 0.717564
0.742135 0.105000 0.354455 -0.696493 0.000000 0.717564
0.740283 -0.105000 0.352657 -0.696493 0.000000 0.717564
0.740283 -0.105000 0.352657 -0.696481 -0.000000 0.717575
0.742135 0.105000 0.354455 -0.696481 -0.000000 0.717575
0.740283 0.105000 0.352657 -0.696481 -0.000000 0.717575
0.740283 -0.105000 0.352657 -0.709535 -0.000000 0.704670
0.740283 0.105000 0.352657 -0.709535 -0.000000 0.704670
0.739199 -0.105000 0.351566 -0.709535 -0.000000 0.704670
0.739199 -0.105000 0.351566 -0.709554 0.000000 0.704651
0.740283 0.105000 0.352657 -0.709554 0.000000 0.704651
0.739199 0.105000 0.351566 -0.709554 0.000000 0.704651
0.739199 -0.105000 0.351566 -0.718462 0.000000 0.695566
0.739199 0.105000 0.351566 -0.718462 0.000000 0.695566
0.738124 -0.105000 0.350456 -0.718462 0.000000 0.695566
0.738124 0.105000 0.350456 -0.718462 0.000000 0.695566
0.738124 -0.105000 0.350456 -0.727141 0.000000 0.686488
0.738124 0.105000 0.350456 -0.727141 0.000000 0.686488
0.736939 -0.105000 0.349200 -0.727141 0.000000 0.686488
0.736939 0.105000 0.349200 -0.727141 0.000000 0.686488
0.736939 -0.105000 0.349200 -0.735567 0.000000 0.677452
0.736939 0.105000 0.349200 -0.735567 0.000000 0.677452
0.735763 -0.105000 0.347924 -0.735567 0.000000 0.677452
0.735763 0.105000 0.347924 -0.735567 0.000000 0.677452
0.735763 -0.105000 0.347924 -0.746536 0.000000 0.665345
0.735763 0.105000 0.347924 -0.746536 0.000000 0.665345
0.733557 -0.105000 0.345448 -0.746536 0.000000 0.665345
0.733557 0.105000 0.345448 -0.746536 0.000000 0.665345
0.733557 -0.105000 0.345448 -0.756575 0.000000 0.653907
0.733557 0.105000 0.345448 -0.756575 0.000000 0.653907
0.732284 -0.105000 0.343976 -0.756575 0.000000 0.653907
0.732284 0.105000 0.343976 -0.756575 0.000000 0.653907
0.732284 -0.105000 0.343976 -0.763097 0.000000 0.646284
0.732284 0.105000 0.343976 -0.763097 0.000000 0.646284
0.731022 -0.105000 0.342486 -0.763097 0.000000 0.646284
0.731022 0.105000 0.342486 -0.763097 0.000000 0.646284
0.731022 -0.105000 0.342486 -0.771547 0.000000 0.636172
0.731022 0.105000 0.342486 -0.771547 0.000000 0.636172
0.728526 -0.105000 0.339458 -0.771547 0.000000 0.636172
0.728526 0.105000 0.339458 -0.771547 0.000000 0.636172
0.728526 -0.105000 0.339458 -0.780767 0.000000 0.624822
0.728526 0.105000 0.339458 -0.780767 0.000000 0.624822
0.726062 -0.105000 0.336380 -0.780767 0.000000 0.624822
0.726062 0.105000 0.336380 -0.780767 0.000000 0.624822
0.726062 -0.105000 0.336380 -0.787747 0.000000 0.615998
0.726062 0.105000 0.336380 -0.787747 0.000000 0.615998
0.723627 -0.105000 0.333265 -0.787747 0.000000 0.615998
0.723627 0.105000 0.333265 -0.787747 0.000000 0.615998
0.723627 -0.105000 0.333265 -0.792024 0.000000 0.610490
0.723627 0.105000 0.333265 -0.792024 0.000000 0.610490
0.722017 -0.105000 0.331176 -0.792024 0.000000 0.610490
0.722017 0.105000 0.331176 -0.792024 0.000000 0.610490
0.722017 -0.105000 0.331176 -0.795214 0.000000 0.606329
0.722017 0.105000 0.331176 -0.795214 0.000000 0.606329
0.718820 -0.105000 0.326984 -0.795214 0.000000 0.606329
0.718820 -0.105000 0.326984 -0.795209 -0.000000 0.606336
0.722017 0.105000 0.331176 -0.795209 -0.000000 0.606336
0.718820 0.105000 0.326984 -0.795209 -0.000000 0.606336
0.718820 -0.105000 0.326984 -0.796342 -0.000000 0.604846
0.718820 0.105000 0.326984 -0.796342 -0.000000 0.604846
0.714061 -0.105000 0.320718 -0.796342 -0.000000 0.604846
0.714061 -0.105000 0.320718 -0.796346 0.000000 0.604841
0.718820 0.105000 0.326984 -0.796346 0.000000 0.604841
0.714061 0.105000 0.320718 -0.796346 0.000000 0.604841
0.714061 -0.105000 0.320718 -0.793275 0.000000 0.608863
0.714061 0.105000 0.320718 -0.793275 0.000000 0.608863
0.711684 -0.105000 0.317620 -0.793275 0.000000 0.608863
0.711684 0.105000 0.317620 -0.793275 0.000000 0.608863
0.711684 -0.105000 0.317620 -0.789117 0.000000 0.614243
0.711684 0.105000 0.317620 -0.789117 0.000000 0.614243
0.709732 -0.105000 0.315113 -0.789117 0.000000 0.614243
0.709732 0.105000 0.315113 -0.789117 0.000000 0.614243
0.709732 -0.105000 0.315113 -0.783824 0.000000 0.620984
0.709732 0.105000 0.315113 -0.783824 0.000000 0.620984
0.707772 -0.105000 0.312639 -0.783824 0.000000 0.620984
0.707772 -0.105000 0.312639 -0.783814 -0.000000 0.620995
0.709732 0.105000 0.315113 -0.783814 -0.000000 0.620995
0.707771 0.105000 0.312639 -0.783814 -0.000000 0.620995
0.707772 -0.105000 0.312639 -0.777546 -0.000000 0.628826
0.707771 0.105000 0.312639 -0.777546 -0.000000 0.628826
0.706111 -0.105000 0.310585 -0.777546 -0.000000 0.628826
0.706111 -0.105000 0.310585 -0.777557 0.000000 0.628812
0.707771 0.105000 0.312639 -0.777557 0.000000 0.628812
0.706111 0.105000 0.310585 -0.777557 0.000000 0.628812
0.706111 -0.105000 0.310585 -0.770527 0.000000 0.637407
0.706111 0.105000 0.310585 -0.770527 0.000000 0.637407
0.704439 -0.105000 0.308565 -0.770527 0.000000 0.637407
0.704439 0.105000 0.308565 -0.770527 0.000000 0.637407
0.704439 -0.105000 0.308565 -0.761689 0.000000 0.647942
0.704439 0.105000 0.308565 -0.761689 0.000000 0.647942
0.702595 -0.105000 0.306397 -0.761689 0.000000 0.647942
0.702595 0.105000 0.306397 -0.761689 0.000000 0.647942
0.702595 -0.105000 0.306397 -0.750699 0.000000 0.660645
0.702595 0.105000 0.306397 -0.750699 0.000000 0.660645
0.700734 -0.105000 0.304281 -0.750699 0.000000 0.660645
0.700734 0.105000 0.304281 -0.750699 0.000000 0.660645
0.700734 -0.105000 0.304281 -0.737676 0.000000 0.675155
0.700734 0.105000 0.304281 -0.737676 0.000000 0.675155
0.698851 -0.105000 0.302225 -0.737676 0.000000 0.675155
0.698851 0.105000 0.302225 -0.737676 0.000000 0.675155
0.698851 -0.105000 0.302225 -0.722317 0.000000 0.691562
0.698851 0.105000 0.302225 -0.722317 0.000000 0.691562
0.696947 -0.105000 0.300236 -0.722317 0.000000 0.691562
0.696947 0.105000 0.300236 -0.722317 0.000000 0.691562
0.696947 -0.105000 0.300236 -0.704337 0.000000 0.709865
0.696947 0.105000 0.300236 -0.704337 0.000000 0.709865
0.695018 -0.105000 0.298322 -0.704337 0.000000 0.709865
0.695018 0.105000 0.298322 -0.704337 0.000000 0.709865
0.695018 -0.105000 0.298322 -0.688963 0.000000 0.724797
0.695018 0.105000 0.298322 -0.688963 0.000000 0.724797
0.694044 -0.105000 0.297396 -0.688963 0.000000 0.724797
0.694044 0.105000 0.297396 -0.688963 0.000000 0.724797
0.694044 -0.105000 0.297396 -0.677651 0.000000 0.735384
0.694044 0.105000 0.297396 -0.677651 0.000000 0.735384
0.693063 -0.105000 0.296492 -0.677651 0.000000 0.735384
0.693063 -0.105000 0.296492 -0.677628 -0.000000 0.735404
0.694044 0.105000 0.297396 -0.677628 -0.000000 0.735404
0.693063 0.105000 0.296492 -0.677628 -0.000000 0.735404
0.693063 -0.105000 0.296492 -0.660796 -0.000000 0.750566
0.693063 0.105000 0.296492 -0.660796 -0.000000 0.750566
0.691365 -0.105000 0.294997 -0.660796 -0.000000 0.750566
0.691365 -0.105000 0.294997 -0.660809 0.000000 0.750554
0.693063 0.105000 0.296492 -0.660809 0.000000 0.750554
0.691365 0.105000 0.294997 -0.660809 0.000000 0.750554
0.691365 -0.105000 0.294997 -0.637015 0.000000 0.770851
0.691365 0.105000 0.294997 -0.637015 0.000000 0.770851
0.689645 -0.105000 0.293576 -0.637015 0.000000 0.770851
0.689645 0.105000 0.293576 -0.637015 0.000000 0.770851
0.689645 -0.105000 0.293576 -0.617156 0.000000 0.786841
0.689645 0.105000 0.293576 -0.617156 0.000000 0.786841
0.688776 -0.105000 0.292895 -0.617156 0.000000 0.786841
0.688776 0.105000 0.292895 -0.617156 0.000000 0.786841
0.688776 -0.105000 0.292895 -0.602841 0.000000 0.797861
0.688776 0.105000 0.292895 -0.602841 0.000000 0.797861
0.687902 -0.105000 0.292234 -0.602841 0.000000 0.797861
0.687902 0.105000 0.292234 -0.602841 0.000000 0.797861
0.687902 -0.105000 0.292234 -0.582835 0.000000 0.812590
0.687902 0.105000 0.292234 -0.582835 0.000000 0.812590
0.686490 -0.105000 0.291221 -0.582835 0.000000 0.812590
0.686490 0.105000 0.291221 -0.582835 0.000000 0.812590
0.686490 -0.105000 0.291221 -0.555997 0.000000 0.831185
0.686490 0.105000 0.291221 -0.555997 0.000000 0.831185
0.685063 -0.105000 0.290266 -0.555997 0.000000 0.831185
0.685063 0.105000 0.290266 -0.555997 0.000000 0.831185
0.685063 -0.105000 0.290266 -0.526570 0.000000 0.850132
0.685063 0.105000 0.290266 -0.526570 0.000000 0.850132
0.683618 -0.105000 0.289372 -0.526570 0.000000 0.850132
0.683618 0.105000 0.289372 -0.526570 0.000000 0.850132
0.683618 -0.105000 0.289372 -0.494353 0.000000 0.869261
0.683618 0.105000 0.289372 -0.494353 0.000000 0.869261
0.682156 -0.105000 0.288540 -0.494353 0.000000 0.869261
0.682156 0.105000 0.288540 -0.494353 0.000000 0.869261
0.682156 -0.105000 0.288540 -0.459224 0.000000 0.888320
0.682156 0.105000 0.288540 -0.459224 0.000000 0.888320
0.680677 -0.105000 0.287775 -0.459224 0.000000 0.888320
0.680677 0.105000 0.287775 -0.459224 0.000000 0.888320
0.680677 -0.105000 0.287775 -0.420481 0.000000 0.907301
0.680677 0.105000 0.287775 -0.420481 0.000000 0.907301
0.679131 -0.105000 0.287059 -0.420481 0.000000 0.907301
0.679131 -0.105000 0.287059 -0.420468 -0.000000 0.907308
0.680677 0.105000 0.287775 -0.420468 -0.000000 0.907308
0.679131 0.105000 0.287059 -0.420468 -0.000000 0.907308
0.679131 -0.105000 0.287059 -0.388798 -0.000000 0.921323
0.679131 0.105000 0.287059 -0.388798 -0.000000 0.921323
0.678344 -0.105000 0.286727 -0.388798 -0.000000 0.921323
0.678344 -0.105000 0.286727 -0.388823 0.000000 0.921313
0.679131 0.105000 0.287059 -0.388823 0.000000 0.921313
0.678344 0.105000 0.286727 -0.388823 0.000000 0.921313
0.678344 -0.105000 0.286727 -0.366536 0.000000 0.930404
0.678344 0.105000 0.286727 -0.366536 0.000000 0.930404
0.677550 -0.105000 0.286414 -0.366536 0.000000 0.930404
0.677550 0.105000 0.286414 -0.366536 0.000000 0.930404
0.677550 -0.105000 0.286414 -0.343511 0.000000 0.939148
0.677550 0.105000 0.286414 -0.343511 0.000000 0.939148
0.676760 -0.105000 0.286125 -0.343511 0.000000 0.939148
0.676760 0.105000 0.286125 -0.343511 0.000000 0.939148
0.676760 -0.105000 0.286125 -0.319855 0.000000 0.947466
0.676760 0.105000 0.286125 -0.319855 0.000000 0.947466
0.675964 -0.105000 0.285856 -0.319855 0.000000 0.947466
0.675964 0.105000 0.285856 -0.319855 0.000000 0.947466
0.675964 -0.105000 0.285856 -0.289042 0.000000 0.957316
0.675964 0.105000 0.285856 -0.289042 0.000000 0.957316
0.674754 -0.105000 0.285491 -0.289042 0.000000 0.957316
0.674754 0.105000 0.285491 -0.289042 0.000000 0.957316
0.674754 -0.105000 0.285491 -0.250639 0.000000 0.968081
0.674754 0.105000 0.285491 -0.250639 0.000000 0.968081
0.673533 -0.105000 0.285175 -0.250639 0.000000 0.968081
0.673533 0.105000 0.285175 -0.250639 0.000000 0.968081
0.673533 -0.105000 0.285175 -0.210789 0.000000 0.977532
0.673533 0.105000 0.285175 -0.210789 0.000000 0.977532
0.672305 -0.105000 0.284910 -0.210789 0.000000 0.977532
0.672305 0.105000 0.284910 -0.210789 0.000000 0.977532
0.672305 -0.105000 0.284910 -0.169933 0.000000 0.985456
0.672305 0.105000 0.284910 -0.169933 0.000000 0.985456
0.671068 -0.105000 0.284697 -0.169933 0.000000 0.985456
0.671068 0.105000 0.284697 -0.169933 0.000000 0.985456
0.671068 -0.105000 0.284697 -0.128295 0.000000 0.991736
0.671068 0.105000 0.284697 -0.128295 0.000000 0.991736
0.669750 -0.105000 0.284526 -0.128295 0.000000 0.991736
0.669750 0.105000 0.284526 -0.128295 0.000000 0.991736
0.669750 -0.105000 0.284526 -0.087074 0.000000 0.996202
0.669750 0.105000 0.284526 -0.087074 0.000000 0.996202
0.668421 -0.105000 0.284410 -0.087074 0.000000 0.996202
0.668421 0.105000 0.284410 -0.087074 0.000000 0.996202
0.668421 -0.105000 0.284410 -0.047578 0.000000 0.998867
0.668421 0.105000 0.284410 -0.047578 0.000000 0.998867
0.667080 -0.105000 0.284346 -0.047578 0.000000 0.998867
0.667080 0.105000 0.284346 -0.047578 0.000000 0.998867
0.667080 -0.105000 0.284346 -0.010019 0.000000 0.999950
0.667080 0.105000 0.284346 -0.010019 0.000000 0.999950
0.665730 -0.105000 0.284333 -0.010019 0.000000 0.999950
0.665730 0.105000 0.284333 -0.010019 0.000000 0.999950
0.665730 -0.105000 0.284333 0.019874 0.000000 0.999803
0.665730 0.105000 0.284333 0.019874 0.000000 0.999803
0.664824 -0.105000 0.284351 0.019874 0.000000 0.999803
0.664824 0.105000 0.284351 0.019874 0.000000 0.999803
0.664824 -0.105000 0.284351 0.042616 0.000000 0.999092
0.664824 0.105000 0.284351 0.042616 0.000000 0.999092
0.663915 -0.105000 0.284390 0.042616 0.000000 0.999092
0.663915 0.105000 0.284390 0.042616 0.000000 0.999092
0.663915 -0.105000 0.284390 0.064559 0.000000 0.997914
0.663915 0.105000 0.284390 0.064559 0.000000 0.997914
0.663001 -0.105000 0.284449 0.064559 0.000000 0.997914
0.663001 0.105000 0.284449 0.064559 0.000000 0.997914
0.663001 -0.105000 0.284449 0.085532 0.000000 0.996335
0.663001 0.105000 0.284449 0.085532 0.000000 0.996335
0.662084 -0.105000 0.284527 0.085532 0.000000 0.996335
0.662084 0.105000 0.284527 0.085532 0.000000 0.996335
0.662084 -0.105000 0.284527 0.106454 0.000000 0.994318
0.662084 0.105000 0.284527 0.106454 0.000000 0.994318
0.661082 -0.105000 0.284635 0.106454 0.000000 0.994318
0.661082 0.105000 0.284635 0.106454 0.000000 0.994318
0.661082 -0.105000 0.284635 0.127174 0.000000 0.991880
0.661082 0.105000 0.284635 0.127174 0.000000 0.991880
0.660076 -0.105000 0.284764 0.127174 0.000000 0.991880
0.660076 0.105000 0.284764 0.127174 0.000000 0.991880
0.660076 -0.105000 0.284764 0.147261 0.000000 0.989098
0.660076 0.105000 0.284764 0.147261 0.000000 0.989098
0.659024 -0.105000 0.284920 0.147261 0.000000 0.989098
0.659024 0.105000 0.284920 0.147261 0.000000 0.989098
0.659024 -0.105000 0.284920 0.166708 0.000000 0.986006
0.659024 0.105000 0.284920 0.166708 0.000000 0.986006
0.657968 -0.105000 0.285099 0.166708 0.000000 0.986006
0.657968 0.105000 0.285099 0.166708 0.000000 0.986006
0.657968 -0.105000 0.285099 0.193335 0.000000 0.981133
0.657968 0.105000 0.285099 0.193335 0.000000 0.981133
0.655889 -0.105000 0.285509 0.193335 0.000000 0.981133
0.655889 0.105000 0.285509 0.193335 0.000000 0.981133
0.655889 -0.105000 0.285509 0.225252 0.000000 0.974301
0.655889 0.105000 0.285509 0.225252 0.000000 0.974301
0.653798 -0.105000 0.285992 0.225252 0.000000 0.974301
0.653798 -0.105000 0.285992 0.225246 0.000000 0.974302
0.655889 0.105000 0.285509 0.225246 0.000000 0.974302
0.653798 0.105000 0.285992 0.225246 0.000000 0.974302
0.653798 -0.105000 0.285992 0.253432 0.000000 0.967353
0.653798 0.105000 0.285992 0.253432 0.000000 0.967353
0.651696 -0.105000 0.286543 0.253432 0.000000 0.967353
0.651696 -0.105000 0.286543 0.253438 0.000000 0.967352
0.653798 0.105000 0.285992 0.253438 0.000000 0.967352
0.651696 0.105000 0.286543 0.253438 0.000000 0.967352
0.651696 -0.105000 0.286543 0.278208 0.000000 0.960521
0.651696 0.105000 0.286543 0.278208 0.000000 0.960521
0.649586 -0.105000 0.287154 0.278208 0.000000 0.960521
0.649586 0.105000 0.287154 0.278208 0.000000 0.960521
0.649586 -0.105000 0.287154 0.297012 0.000000 0.954874
0.649586 0.105000 0.287154 0.297012 0.000000 0.954874
0.648064 -0.105000 0.287627 0.297012 0.000000 0.954874
0.648064 0.105000 0.287627 0.297012 0.000000 0.954874
0.648064 -0.105000 0.287627 0.311001 0.000000 0.950410
0.648064 0.105000 0.287627 0.311001 0.000000 0.950410
0.646537 -0.105000 0.288127 0.311001 0.000000 0.950410
0.646537 0.105000 0.288127 0.311001 0.000000 0.950410
0.646537 -0.105000 0.288127 0.324096 0.000000 0.946024
0.646537 0.105000 0.288127 0.324096 0.000000 0.946024
0.644876 -0.105000 0.288696 0.324096 0.000000 0.946024
0.644876 0.105000 0.288696 0.324096 0.000000 0.946024
0.644876 -0.105000 0.288696 0.336168 0.000000 0.941802
0.644876 0.105000 0.288696 0.336168 0.000000 0.941802
0.643210 -0.105000 0.289291 0.336168 0.000000 0.941802
0.643210 -0.105000 0.289291 0.336157 0.000000 0.941806
0.644876 0.105000 0.288696 0.336157 0.000000 0.941806
0.643210 0.105000 0.289291 0.336157 0.000000 0.941806
0.643210 -0.105000 0.289291 0.347540 0.000000 0.937665
0.643210 0.105000 0.289291 0.347540 0.000000 0.937665
0.641275 -0.105000 0.290008 0.347540 0.000000 0.937665
0.641275 0.105000 0.290008 0.347540 0.000000 0.937665
0.641275 -0.105000 0.290008 0.357917 0.000000 0.933753
0.641275 0.105000 0.290008 0.357917 0.000000 0.933753
0.639335 -0.105000 0.290751 0.357917 0.000000 0.933753
0.639335 -0.105000 0.290751 0.357926 0.000000 0.933750
0.641275 0.105000 0.290008 0.357926 0.000000 0.933750
0.639335 0.105000 0.290751 0.357926 0.000000 0.933750
0.639335 -0.105000 0.290751 0.368383 0.000000 0.929674
0.639335 0.105000 0.290751 0.368383 0.000000 0.929674
0.636420 -0.105000 0.291906 0.368383 0.000000 0.929674
0.636420 0.105000 0.291906 0.368383 0.000000 0.929674
0.636420 -0.105000 0.291906 0.377658 0.000000 0.925945
0.636420 0.105000 0.291906 0.377658 0.000000 0.925945
0.633493 -0.105000 0.293100 0.377658 0.000000 0.925945
0.633493 0.105000 0.293100 0.377658 0.000000 0.925945
0.633493 -0.105000 0.293100 0.384467 0.000000 0.923139
0.633493 0.105000 0.293100 0.384467 0.000000 0.923139
0.628581 -0.105000 0.295146 0.384467 0.000000 0.923139
0.628581 -0.105000 0.295146 0.384463 0.000000 0.923141
0.633493 0.105000 0.293100 0.384463 0.000000 0.923141
0.628581 0.105000 0.295146 0.384463 0.000000 0.923141
0.628581 -0.105000 0.295146 0.385198 0.000000 0.922834
0.628581 0.105000 0.295146 0.385198 0.000000 0.922834
0.623638 -0.105000 0.297209 0.385198 0.000000 0.922834
0.623638 -0.105000 0.297209 0.385202 0.000000 0.922832
0.628581 0.105000 0.295146 0.385202 0.000000 0.922832
0.623638 0.105000 0.297209 0.385202 0.000000 0.922832
0.623638 -0.105000 0.297209 0.378002 0.000000 0.925805
0.623638 0.105000 0.297209 0.378002 0.000000 0.925805
0.619305 -0.105000 0.298978 0.378002 0.000000 0.925805
0.619305 -0.105000 0.298978 0.377997 0.000000 0.925807
0.623638 0.105000 0.297209 0.377997 0.000000 0.925807
0.619305 0.105000 0.298978 0.377997 0.000000 0.925807
0.619305 -0.105000 0.298978 0.368484 0.000000 0.929634
0.619305 0.105000 0.298978 0.368484 0.000000 0.929634
0.617133 -0.105000 0.299839 0.368484 0.000000 0.929634
0.617133 -0.105000 0.299839 0.368493 0.000000 0.929631
0.619305 0.105000 0.298978 0.368493 0.000000 0.929631
0.617133 0.105000 0.299839 0.368493 0.000000 0.929631
0.617133 -0.105000 0.299839 0.358970 0.000000 0.933349
0.617133 0.105000 0.299839 0.358970 0.000000 0.933349
0.614578 -0.105000 0.300822 0.358970 0.000000 0.933349
0.614578 -0.105000 0.300822 0.358962 0.000000 0.933352
0.617133 0.105000 0.299839 0.358962 0.000000 0.933352
0.614578 0.105000 0.300822 0.358962 0.000000 0.933352
0.614578 -0.105000 0.300822 0.346237 0.000000 0.938147
0.614578 0.105000 0.300822 0.346237 0.000000 0.938147
0.612020 -0.105000 0.301766 0.346237 0.000000 0.938147
0.612020 -0.105000 0.301766 0.346244 0.000000 0.938145
0.614578 0.105000 0.300822 0.346244 0.000000 0.938145
0.612020 0.105000 0.301766 0.346244 0.000000 0.938145
0.612020 -0.105000 0.301766 0.329666 0.000000 0.944098
0.612020 0.105000 0.301766 0.329666 0.000000 0.944098
0.609104 -0.105000 0.302784 0.329666 0.000000 0.944098
0.609104 0.105000 0.302784 0.329666 0.000000 0.944098
0.609104 -0.105000 0.302784 0.314284 0.000000 0.949329
0.609104 0.105000 0.302784 0.314284 0.000000 0.949329
0.607645 -0.105000 0.303267 0.314284 0.000000 0.949329
0.607645 -0.105000 0.303267 0.314272 0.000000 0.949333
0.609104 0.105000 0.302784 0.314272 0.000000 0.949333
0.607645 0.105000 0.303267 0.314272 0.000000 0.949333
0.607645 -0.105000 0.303267 0.302712 0.000000 0.953082
0.607645 0.105000 0.303267 0.302712 0.000000 0.953082
0.606186 -0.105000 0.303731 0.302712 0.000000 0.953082
0.606186 -0.105000 0.303731 0.302723 0.000000 0.953078
0.607645 0.105000 0.303267 0.302723 0.000000 0.953078
0.606186 0.105000 0.303731 0.302723 0.000000 0.953078
0.606186 -0.105000 0.303731 0.287953 0.000000 0.957644
0.606186 0.105000 0.303731 0.287953 0.000000 0.957644
0.604240 -0.105000 0.304316 0.287953 0.000000 0.957644
0.604240 0.105000 0.304316 0.287953 0.000000 0.957644
0.604240 -0.105000 0.304316 0.269336 0.000000 0.963046
0.604240 0.105000 0.304316 0.269336 0.000000 0.963046
0.602293 -0.105000 0.304860 0.269336 0.000000 0.963046
0.602293 0.105000 0.304860 0.269336 0.000000 0.963046
0.602293 -0.105000 0.304860 0.248789 0.000000 0.968558
0.602293 0.105000 0.304860 0.248789 0.000000 0.968558
0.600347 -0.105000 0.305360 0.248789 0.000000 0.968558
0.600347 -0.105000 0.305360 0.248782 0.000000 0.968560
0.602293 0.105000 0.304860 0.248782 0.000000 0.968560
0.600347 0.105000 0.305360 0.248782 0.000000 0.968560
0.600347 -0.105000 0.305360 0.230373 0.000000 0.973103
0.600347 0.105000 0.305360 0.230373 0.000000 0.973103
0.599096 -0.105000 0.305656 0.230373 0.000000 0.973103
0.599096 -0.105000 0.305656 0.230383 0.000000 0.973100
0.600347 0.105000 0.305360 0.230383 0.000000 0.973100
0.599096 0.105000 0.305656 0.230383 0.000000 0.973100
0.599096 -0.105000 0.305656 0.214954 0.000000 0.976624
0.599096 0.105000 0.305656 0.214954 0.000000 0.976624
0.597845 -0.105000 0.305932 0.214954 0.000000 0.976624
0.597845 -0.105000 0.305932 0.214944 0.000000 0.976626
0.599096 0.105000 0.305656 0.214944 0.000000 0.976626
0.597845 0.105000 0.305932 0.214944 0.000000 0.976626
0.597845 -0.105000 0.305932 0.195739 0.000000 0.980656
0.597845 0.105000 0.305932 0.195739 0.000000 0.980656
0.596177 -0.105000 0.306265 0.195739 0.000000 0.980656
0.596177 -0.105000 0.306265 0.195745 0.000000 0.980655
0.597845 0.105000 0.305932 0.195745 0.000000 0.980655
0.596177 0.105000 0.306265 0.195745 0.000000 0.980655
0.596177 -0.105000 0.306265 0.172245 0.000000 0.985054
0.596177 0.105000 0.306265 0.172245 0.000000 0.985054
0.594510 -0.105000 0.306556 0.172245 0.000000 0.985054
0.594510 0.105000 0.306556 0.172245 0.000000 0.985054
0.594510 -0.105000 0.306556 0.147008 0.000000 0.989135
0.594510 0.105000 0.306556 0.147008 0.000000 0.989135
0.592843 -0.105000 0.306804 0.147008 0.000000 0.989135
0.592843 0.105000 0.306804 0.147008 0.000000 0.989135
0.592843 -0.105000 0.306804 0.118203 0.000000 0.992989
0.592843 0.105000 0.306804 0.118203 0.000000 0.992989
0.590970 -0.105000 0.307027 0.118203 0.000000 0.992989
0.590970 0.105000 0.307027 0.118203 0.000000 0.992989
0.590970 -0.105000 0.307027 0.085481 0.000000 0.996340
0.590970 0.105000 0.307027 0.085481 0.000000 0.996340
0.589099 -0.105000 0.307187 0.085481 0.000000 0.996340
0.589099 0.105000 0.307187 0.085481 0.000000 0.996340
0.589099 -0.105000 0.307187 0.050461 0.000000 0.998726
0.589099 0.105000 0.307187 0.050461 0.000000 0.998726
0.587233 -0.105000 0.307282 0.050461 0.000000 0.998726
0.587233 -0.105000 0.307282 0.050459 0.000000 0.998726
0.589099 0.105000 0.307187 0.050459 0.000000 0.998726
0.587233 0.105000 0.307282 0.050459 0.000000 0.998726
0.587233 -0.105000 0.307282 0.013139 0.000000 0.999914
0.587233 0.105000 0.307282 0.013139 0.000000 0.999914
0.585370 -0.105000 0.307306 0.013139 0.000000 0.999914
0.585370 0.105000 0.307306 0.013139 0.000000 0.999914
0.585370 -0.105000 0.307306 -0.016666 0.000000 0.999861
0.585370 0.105000 0.307306 -0.016666 0.000000 0.999861
0.584401 -0.105000 0.307290 -0.016666 0.000000 0.999861
0.584401 -0.105000 0.307290 -0.016665 -0.000000 0.999861
0.585370 0.105000 0.307306 -0.016665 -0.000000 0.999861
0.584401 0.105000 0.307290 -0.016665 -0.000000 0.999861
0.584401 -0.105000 0.307290 -0.037870 -0.000000 0.999283
0.584401 0.105000 0.307290 -0.037870 -0.000000 0.999283
0.583434 -0.105000 0.307253 -0.037870 -0.000000 0.999283
0.583434 0.105000 0.307253 -0.037870 -0.000000 0.999283
0.583434 -0.105000 0.307253 -0.059437 -0.000000 0.998232
0.583434 0.105000 0.307253 -0.059437 -0.000000 0.998232
0.582481 -0.105000 0.307197 -0.059437 -0.000000 0.998232
0.582481 -0.105000 0.307197 -0.059441 0.000000 0.998232
0.583434 0.105000 0.307253 -0.059441 0.000000 0.998232
0.582481 0.105000 0.307197 -0.059441 0.000000 0.998232
0.582481 -0.105000 0.307197 -0.081464 0.000000 0.996676
0.582481 0.105000 0.307197 -0.081464 0.000000 0.996676
0.581529 -0.105000 0.307119 -0.081464 0.000000 0.996676
0.581529 0.105000 0.307119 -0.081464 0.000000 0.996676
0.581529 -0.105000 0.307119 -0.107837 0.000000 0.994169
0.581529 0.105000 0.307119 -0.107837 0.000000 0.994169
0.580257 -0.105000 0.306981 -0.107837 0.000000 0.994169
0.580257 0.105000 0.306981 -0.107837 0.000000 0.994169
0.580257 -0.105000 0.306981 -0.138722 0.000000 0.990331
0.580257 0.105000 0.306981 -0.138722 0.000000 0.990331
0.578989 -0.105000 0.306803 -0.138722 0.000000 0.990331
0.578989 0.105000 0.306803 -0.138722 0.000000 0.990331
0.578989 -0.105000 0.306803 -0.170319 0.000000 0.985389
0.578989 0.105000 0.306803 -0.170319 0.000000 0.985389
0.577727 -0.105000 0.306585 -0.170319 0.000000 0.985389
0.577727 0.105000 0.306585 -0.170319 0.000000 0.985389
0.577727 -0.105000 0.306585 -0.206544 0.000000 0.978437
0.577727 0.105000 0.306585 -0.206544 0.000000 0.978437
0.576157 -0.105000 0.306254 -0.206544 0.000000 0.978437
0.576157 0.105000 0.306254 -0.206544 0.000000 0.978437
0.576157 -0.105000 0.306254 -0.247360 0.000000 0.968924
0.576157 0.105000 0.306254 -0.247360 0.000000 0.968924
0.574598 -0.105000 0.305856 -0.247360 0.000000 0.968924
0.574598 0.105000 0.305856 -0.247360 0.000000 0.968924
0.574598 -0.105000 0.305856 -0.288511 0.000000 0.957477
0.574598 0.105000 0.305856 -0.288511 0.000000 0.957477
0.573050 -0.105000 0.305389 -0.288511 0.000000 0.957477
0.573050 -0.105000 0.305389 -0.288501 -0.000000 0.957480
0.574598 0.105000 0.305856 -0.288501 -0.000000 0.957480
0.573050 0.105000 0.305389 -0.288501 -0.000000 0.957480
0.573050 -0.105000 0.305389 -0.329673 -0.000000 0.944095
0.573050 0.105000 0.305389 -0.329673 -0.000000 0.944095
0.571513 -0.105000 0.304853 -0.329673 -0.000000 0.944095
0.571513 -0.105000 0.304853 -0.329685 0.000000 0.944091
0.573050 0.105000 0.305389 -0.329685 0.000000 0.944091
0.571513 0.105000 0.304853 -0.329685 0.000000 0.944091
0.571513 -0.105000 0.304853 -0.370629 0.000000 0.928781
0.571513 0.105000 0.304853 -0.370629 0.000000 0.928781
0.569990 -0.105000 0.304245 -0.370629 0.000000 0.928781
0.569990 0.105000 0.304245 -0.370629 0.000000 0.928781
0.569990 -0.105000 0.304245 -0.410998 0.000000 0.911636
0.569990 0.105000 0.304245 -0.410998 0.000000 0.911636
0.568482 -0.105000 0.303565 -0.410998 0.000000 0.911636
0.568482 -0.105000 0.303565 -0.410985 -0.000000 0.911642
0.569990 0.105000 0.304245 -0.410985 -0.000000 0.911642
0.568481 0.105000 0.303565 -0.410985 -0.000000 0.911642
0.568482 -0.105000 0.303565 -0.450243 -0.000000 0.892906
0.568481 0.105000 0.303565 -0.450243 -0.000000 0.892906
0.567007 -0.105000 0.302821 -0.450243 -0.000000 0.892906
0.567007 0.105000 0.302821 -0.450243 -0.000000 0.892906
0.567007 -0.105000 0.302821 -0.488074 -0.000000 0.872802
0.567007 0.105000 0.302821 -0.488074 -0.000000 0.872802
0.565548 -0.105000 0.302005 -0.488074 -0.000000 0.872802
0.565548 -0.105000 0.302005 -0.488089 0.000000 0.872794
0.567007 0.105000 0.302821 -0.488089 0.000000 0.872794
0.565548 0.105000 0.302005 -0.488089 0.000000 0.872794
0.565548 -0.105000 0.302005 -0.524593 0.000000 0.851353
0.565548 0.105000 0.302005 -0.524593 0.000000 0.851353
0.564106 -0.105000 0.301117 -0.524593 0.000000 0.851353
0.564106 0.105000 0.301117 -0.524593 0.000000 0.851353
0.564106 -0.105000 0.301117 -0.559588 0.000000 0.828771
0.564106 0.105000 0.301117 -0.559588 0.000000 0.828771
0.562683 -0.105000 0.300156 -0.559588 0.000000 0.828771
0.562683 -0.105000 0.300156 -0.559572 -0.000000 0.828781
0.564106 0.105000 0.301117 -0.559572 -0.000000 0.828781
0.562683 0.105000 0.300156 -0.559572 -0.000000 0.828781
0.562683 -0.105000 0.300156 -0.592783 -0.000000 0.805362
0.562683 0.105000 0.300156 -0.592783 -0.000000 0.805362
0.561279 -0.105000 0.299122 -0.592783 -0.000000 0.805362
0.561279 -0.105000 0.299122 -0.592800 0.000000 0.805350
0.562683 0.105000 0.300156 -0.592800 0.000000 0.805350
0.561279 0.105000 0.299122 -0.592800 0.000000 0.805350
0.561279 -0.105000 0.299122 -0.624254 0.000000 0.781222
0.561279 0.105000 0.299122 -0.624254 0.000000 0.781222
0.559895 -0.105000 0.298016 -0.624254 0.000000 0.781222
0.559895 0.105000 0.298016 -0.624254 0.000000 0.781222
0.559895 -0.105000 0.298016 -0.653786 0.000000 0.756679
0.559895 0.105000 0.298016 -0.653786 0.000000 0.756679
0.558532 -0.105000 0.296839 -0.653786 0.000000 0.756679
0.558532 0.105000 0.296839 -0.653786 0.000000 0.756679
0.558532 -0.105000 0.296839 -0.681456 0.000000 0.731859
0.558532 0.105000 0.296839 -0.681456 0.000000 0.731859
0.557190 -0.105000 0.295590 -0.681456 0.000000 0.731859
0.557190 0.105000 0.295590 -0.681456 0.000000 0.731859
0.557190 -0.105000 0.295590 -0.704244 0.000000 0.709958
0.557190 0.105000 0.295590 -0.704244 0.000000 0.709958
0.556183 -0.105000 0.294591 -0.704244 0.000000 0.709958
0.556183 -0.105000 0.294591 -0.704223 -0.000000 0.709979
0.557190 0.105000 0.295590 -0.704223 -0.000000 0.709979
0.556183 0.105000 0.294591 -0.704223 -0.000000 0.709979
0.556183 -0.105000 0.294591 -0.722681 -0.000000 0.691182
0.556183 0.105000 0.294591 -0.722681 -0.000000 0.691182
0.555189 -0.105000 0.293551 -0.722681 -0.000000 0.691182
0.555189 -0.105000 0.293551 -0.722701 0.000000 0.691161
0.556183 0.105000 0.294591 -0.722701 0.000000 0.691161
0.555189 0.105000 0.293551 -0.722701 0.000000 0.691161
0.555189 -0.105000 0.293551 -0.740153 0.000000 0.672439
0.555189 0.105000 0.293551 -0.740153 0.000000 0.672439
0.554209 -0.105000 0.292472 -0.740153 0.000000 0.672439
0.554209 0.105000 0.292472 -0.740153 0.000000 0.672439
0.554209 -0.105000 0.292472 -0.754570 0.000000 0.656220
0.554209 0.105000 0.292472 -0.754570 0.000000 0.656220
0.553482 -0.105000 0.291637 -0.754570 0.000000 0.656220
0.553482 0.105000 0.291637 -0.754570 0.000000 0.656220
0.553482 -0.105000 0.291637 -0.766302 0.000000 0.642480
0.553482 0.105000 0.291637 -0.766302 0.000000 0.642480
0.552764 -0.105000 0.290780 -0.766302 0.000000 0.642480
0.552764 0.105000 0.290780 -0.766302 0.000000 0.642480
0.552764 -0.105000 0.290780 -0.782864 0.000000 0.622193
0.552764 0.105000 0.290780 -0.782864 0.000000 0.622193
0.551350 -0.105000 0.289001 -0.782864 0.000000 0.622193
0.551350 0.105000 0.289001 -0.782864 0.000000 0.622193
0.551350 -0.105000 0.289001 -0.803151 0.000000 0.595776
0.551350 0.105000 0.289001 -0.803151 0.000000 0.595776
0.549969 -0.105000 0.287139 -0.803151 0.000000 0.595776
0.549969 0.105000 0.287139 -0.803151 0.000000 0.595776
0.549969 -0.105000 0.287139 -0.821491 0.000000 0.570222
0.549969 0.105000 0.287139 -0.821491 0.000000 0.570222
0.548620 -0.105000 0.285196 -0.821491 0.000000 0.570222
0.548620 0.105000 0.285196 -0.821491 0.000000 0.570222
3 0 1 2
3 3 4 5
3 6 7 8
3 9 10 11
3 12 13 14
3 14 13 15
3 16 17 18
3 18 17 19
3 20 21 22
3 22 21 23
3 24 25 26
3 27 28 29
3 30 31 32
3 33 34 35
3 36 37 38
3 38 37 39
3 40 41 42
3 43 44 45
3 46 47 48
3 48 47 49
3 50 51 52
3 53 54 55
3 56 57 58
3 58 57 59
3 60 61 62
3 62 61 63
3 64 65 66
3 66 65 67
3 68 69 70
3 70 69 71
3 72 73 74
3 74 73 75
3 76 77 78
3 79 80 81
3 82 83 84
3 84 83 85
3 86 87 88
3 89 90 91
3 92 93 94
3 94 93 95
3 96 97 98
3 98 97 99
3 100 101 102
3 102 101 103
3 104 105 106
3 106 105 107
3 108 109 110
3 110 109 111
3 112 113 114
3 114 113 115
3 116 117 118
3 118 117 119
3 120 121 122
3 122 121 123
3 124 125 126
3 126 125 127
3 128 129 130
3 130 129 131
3 132 133 134
3 134 133 135
3 136 137 138
3 139 140 141
3 142 143 144
3 145 146 147
3 148 149 150
3 150 149 151
3 152 153 154
3 155 156 157
3 158 159 160
3 161 162 163
3 164 165 166
3 166 165 167
3 168 169 170
3 170 169 171
3 172 173 174
3 174 173 175
3 176 177 178
3 179 180 181
3 182 183 184
3 185 186 187
3 188 189 190
3 190 189 191
3 192 193 194
3 194 193 195
3 196 197 198
3 198 197 199
3 200 201 202
3 202 201 203
3 204 205 206
3 206 205 207
3 208 209 210
3 210 209 211
3 212 213 214
3 214 213 215
3 216 217 218
3 218 217 219
3 220 221 222
3 222 221 223
3 224 225 226
3 226 225 227
3 228 229 230
3 231 232 233
3 234 235 236
3 237 238 239
3 240 241 242
3 242 241 243
3 244 245 246
3 246 245 247
3 248 249 250
3 251 252 253
3 254 255 256
3 257 258 259
3 260 261 262
3 262 261 263
3 264 265 266
3 266 265 267
3 268 269 270
3 270 269 271
3 272 273 274
3 274 273 275
3 276 277 278
3 278 277 279
3 280 281 282
3 282 281 283
3 284 285 286
3 286 285 287
3 288 289 290
3 291 292 293
3 294 295 296
3 297 298 299
3 300 301 302
3 302 301 303
3 304 305 306
3 306 305 307
3 308 309 310
3 310 309 311
3 312 313 314
3 314 313 315
3 316 317 318
3 318 317 319
3 320 321 322
3 322 321 323
3 324 325 326
3 326 325 327
3 328 329 330
3 330 329 331
3 332 333 334
3 335 336 337
3 338 339 340
3 341 342 343
3 344 345 346
3 346 345 347
3 348 349 350
3 350 349 351
3 352 353 354
3 354 353 355
3 356 357 358
3 358 357 359
3 360 361 362
3 362 361 363
3 364 365 366
3 366 365 367
3 368 369 370
3 370 369 371
3 372 373 374
3 374 373 375
3 376 377 378
3 378 377 379
3 380 381 382
3 382 381 383
3 384 385 386
3 386 385 387
3 388 389 390
3 390 389 391
3 392 393 394
3 394 393 395
3 396 397 398
3 398 397 399
3 400 401 402
3 402 401 403
3 404 405 406
3 406 405 407
3 408 409 410
3 410 409 411
3 412 413 414
3 414 413 415
3 416 417 418
3 418 417 419
3 420 421 422
3 422 421 423
3 424 425 426
3 427 428 429
3 430 431 432
3 433 434 435
3 436 437 438
3 438 437 439
3 440 441 442
3 442 441 443
3 444 445 446
3 446 445 447
3 448 449 450
3 450 449 451
3 452 453 454
3 455 456 457
3 458 459 460
3 460 459 461
3 462 463 464
3 465 466 467
3 468 469 470
3 470 469 471
3 472 473 474
3 474 473 475
3 476 477 478
3 479 480 481
3 482 483 484
3 485 486 487
3 488 489 490
3 491 492 493
3 494 495 496
3 497 498 499
3 500 501 502
3 503 504 505
3 506 507 508
3 509 510 511
3 512 513 514
3 514 513 515
3 516 517 518
3 519 520 521
3 522 523 524
3 525 526 527
3 528 529 530
3 530 529 531
3 532 533 534
3 534 533 535
3 536 537 538
3 539 540 541
3 542 543 544
3 545 546 547
3 548 549 550
3 551 552 553
3 554 555 556
3 557 558 559
3 560 561 562
3 562 561 563
3 564 565 566
3 566 565 567
3 568 569 570
3 570 569 571
3 572 573 574
3 574 573 575
3 576 577 578
3 579 580 581
3 582 583 584
3 584 583 585
3 586 587 588
3 589 590 591
3 592 593 594
3 594 593 595
3 596 597 598
3 599 600 601
3 602 603 604
3 604 603 605
3 606 607 608
3 608 607 609
3 610 611 612
3 612 611 613
3 614 615 616
3 616 615 617
3 618 619 620
3 620 619 621
3 622 623 624
3 624 623 625
3 626 627 628
3 629 630 631
3 632 633 634
3 635 636 637
3 638 639 640
3 640 639 641
3 642 643 644
3 645 646 647
3 648 649 650
3 650 649 651
3 652 653 654
3 655 656 657
3 658 659 660
3 660 659 661
3 662 663 664
3 665 666 667
3 668 669 670
3 671 672 673
3 674 675 676
3 676 675 677
3 678 679 680
3 680 679 681
3 682 683 684
3 684 683 685
3 686 687 688
3 689 690 691
3 692 693 694
3 695 696 697
3 698 699 700
3 700 699 701
3 702 703 704
3 704 703 705
3 706 707 708
3 708 707 709
3 710 711 712
3 712 711 713
3 714 715 716
3 716 715 717
3 718 719 720
3 720 719 721
